<svg width="100%" height="100%"  viewBox="0 0 24 24" fill="current" stroke="current" xmlns="http://www.w3.org/2000/svg">
<path d="M12 8.54266L20.727 17.0347C20.7973 17.1046 20.8808 17.1599 20.9726 17.1973C21.0645 17.2347 21.1628 17.2536 21.262 17.2527C21.3611 17.2519 21.4591 17.2314 21.5503 17.1925C21.6415 17.1535 21.7241 17.0969 21.7933 17.0258C21.8624 16.9547 21.9168 16.8706 21.9532 16.7784C21.9897 16.6862 22.0075 16.5876 22.0056 16.4885C22.0037 16.3893 21.9822 16.2916 21.9422 16.2008C21.9023 16.11 21.8448 16.0281 21.773 15.9597L12.523 6.95966C12.383 6.82344 12.1953 6.74722 12 6.74722C11.8046 6.74722 11.617 6.82344 11.477 6.95966L2.22697 15.9597C2.15515 16.0281 2.09762 16.11 2.05769 16.2008C2.01776 16.2916 1.99623 16.3893 1.99434 16.4885C1.99245 16.5876 2.01024 16.6862 2.04669 16.7784C2.08314 16.8706 2.13751 16.9547 2.20667 17.0258C2.27583 17.0969 2.35839 17.1535 2.44959 17.1925C2.54079 17.2314 2.63881 17.2519 2.73797 17.2527C2.83714 17.2536 2.93548 17.2347 3.02731 17.1973C3.11914 17.1599 3.20264 17.1046 3.27297 17.0347L12 8.54266Z" />
</svg>
