<svg width="current" height="current" viewBox="0 0 24 24" fill="current" stroke="current" xmlns="http://www.w3.org/2000/svg">
<path d="M15.4563 12L6.9653 3.273C6.89539 3.20267 6.84011 3.11917 6.80268 3.02734C6.76525 2.93551 6.74639 2.83717 6.74722 2.738C6.74804 2.63884 6.76852 2.54082 6.80748 2.44962C6.84643 2.35843 6.90309 2.27586 6.97416 2.2067C7.04524 2.13754 7.12932 2.08317 7.22155 2.04672C7.31378 2.01027 7.41232 1.99248 7.51147 1.99437C7.61062 1.99626 7.70841 2.01779 7.79919 2.05772C7.88996 2.09765 7.97191 2.15519 8.0403 2.227L17.0403 11.477C17.1765 11.617 17.2527 11.8047 17.2527 12C17.2527 12.1953 17.1765 12.383 17.0403 12.523L8.0403 21.773C7.97191 21.8448 7.88996 21.9023 7.79919 21.9423C7.70841 21.9822 7.61062 22.0037 7.51147 22.0056C7.41232 22.0075 7.31378 21.9897 7.22155 21.9533C7.12932 21.9168 7.04524 21.8625 6.97416 21.7933C6.90309 21.7241 6.84643 21.6416 6.80748 21.5504C6.76852 21.4592 6.74804 21.3612 6.74722 21.262C6.74639 21.1628 6.76525 21.0645 6.80268 20.9727C6.84011 20.8808 6.89539 20.7973 6.9653 20.727L15.4563 12Z"/>
</svg>
