<svg width="current" height="current" viewBox="0 0 24 24" fill="current" stroke="current" xmlns="http://www.w3.org/2000/svg">
<path d="M8.54263 12L17.0346 3.273C17.1045 3.20267 17.1598 3.11917 17.1973 3.02734C17.2347 2.93551 17.2535 2.83717 17.2527 2.738C17.2519 2.63884 17.2314 2.54082 17.1925 2.44962C17.1535 2.35843 17.0968 2.27586 17.0258 2.2067C16.9547 2.13754 16.8706 2.08317 16.7784 2.04672C16.6862 2.01027 16.5876 1.99248 16.4885 1.99437C16.3893 1.99626 16.2915 2.01779 16.2008 2.05772C16.11 2.09765 16.028 2.15519 15.9596 2.227L6.95963 11.477C6.82341 11.617 6.74719 11.8047 6.74719 12C6.74719 12.1953 6.82341 12.383 6.95963 12.523L15.9596 21.773C16.028 21.8448 16.11 21.9023 16.2008 21.9423C16.2915 21.9822 16.3893 22.0037 16.4885 22.0056C16.5876 22.0075 16.6862 21.9897 16.7784 21.9533C16.8706 21.9168 16.9547 21.8625 17.0258 21.7933C17.0968 21.7241 17.1535 21.6416 17.1925 21.5504C17.2314 21.4592 17.2519 21.3612 17.2527 21.262C17.2535 21.1628 17.2347 21.0645 17.1973 20.9727C17.1598 20.8808 17.1045 20.7973 17.0346 20.727L8.54263 12Z"/>
</svg>
