<svg width="current" height="current" viewBox="0 0 24 24" fill="current" stroke="current" xmlns="http://www.w3.org/2000/svg">
<path d="M12 15.4573L3.27303 6.96534C3.2027 6.89542 3.1192 6.84015 3.02737 6.80271C2.93554 6.76528 2.8372 6.74643 2.73803 6.74725C2.63887 6.74808 2.54085 6.76856 2.44965 6.80751C2.35846 6.84647 2.27589 6.90312 2.20673 6.9742C2.13757 7.04527 2.0832 7.12935 2.04675 7.22158C2.01031 7.31381 1.99251 7.41235 1.9944 7.5115C1.99629 7.61065 2.01782 7.70845 2.05775 7.79922C2.09768 7.88999 2.15522 7.97195 2.22703 8.04034L11.477 17.0403C11.617 17.1766 11.8047 17.2528 12 17.2528C12.1954 17.2528 12.383 17.1766 12.523 17.0403L21.773 8.04034C21.8448 7.97194 21.9024 7.88999 21.9423 7.79922C21.9822 7.70844 22.0038 7.61065 22.0057 7.5115C22.0075 7.41235 21.9898 7.31381 21.9533 7.22158C21.9169 7.12935 21.8625 7.04527 21.7933 6.97419C21.7242 6.90312 21.6416 6.84647 21.5504 6.80751C21.4592 6.76856 21.3612 6.74807 21.262 6.74725C21.1629 6.74643 21.0645 6.76528 20.9727 6.80271C20.8809 6.84015 20.7974 6.89542 20.727 6.96534L12 15.4573Z"/>
</svg>
