<svg width="current" height="current" viewBox="0 0 24 24" fill="current" stroke="current" xmlns="http://www.w3.org/2000/svg">
<path d="M7 6.99999V4.99999C7.00001 4.42087 7.16765 3.85413 7.48266 3.36819C7.79768 2.88224 8.24662 2.49786 8.77529 2.26144C9.30395 2.02502 9.88975 1.94667 10.462 2.03584C11.0342 2.12502 11.5683 2.37791 12 2.76399C12.4317 2.37791 12.9658 2.12502 13.538 2.03584C14.1103 1.94667 14.696 2.02502 15.2247 2.26144C15.7534 2.49786 16.2023 2.88224 16.5173 3.36819C16.8324 3.85413 17 4.42087 17 4.99999V6.99999H18.5C18.8978 6.99999 19.2794 7.15803 19.5607 7.43933C19.842 7.72064 20 8.10217 20 8.49999V18.505C20 19.4319 19.6318 20.3209 18.9763 20.9763C18.3209 21.6318 17.4319 22 16.505 22H8C6.93913 22 5.92172 21.5786 5.17157 20.8284C4.42143 20.0783 4 19.0609 4 18V8.49999C4 8.10217 4.15804 7.72064 4.43934 7.43933C4.72064 7.15803 5.10218 6.99999 5.5 6.99999H7ZM13.635 20.5C13.2283 19.9142 13.0102 19.2181 13.01 18.505V8.49999H5.5V18C5.5 18.3283 5.56466 18.6534 5.6903 18.9567C5.81594 19.26 6.00009 19.5356 6.23223 19.7678C6.46438 19.9999 6.73998 20.1841 7.04329 20.3097C7.34661 20.4353 7.6717 20.5 8 20.5H13.635ZM11.5 6.99999V4.99999C11.5 4.60217 11.342 4.22064 11.0607 3.93933C10.7794 3.65803 10.3978 3.49999 10 3.49999C9.60218 3.49999 9.22064 3.65803 8.93934 3.93933C8.65804 4.22064 8.5 4.60217 8.5 4.99999V6.99999H11.5ZM13 6.99999H15.5V4.99999C15.5 4.69123 15.4048 4.38998 15.2272 4.13736C15.0497 3.88474 14.7985 3.69306 14.508 3.58849C14.2175 3.48392 13.9018 3.47156 13.604 3.55308C13.3062 3.6346 13.0408 3.80604 12.844 4.044C12.945 4.344 13 4.666 13 4.99999V6.99999ZM14.51 18.505C14.51 19.0341 14.7202 19.5415 15.0943 19.9157C15.4685 20.2898 15.9759 20.5 16.505 20.5C17.0341 20.5 17.5415 20.2898 17.9157 19.9157C18.2898 19.5415 18.5 19.0341 18.5 18.505V8.49999H14.51V18.505Z"/>
</svg>
