<svg width="current" height="current" viewBox="0 0 24 24" fill="current" stroke="current" xmlns="http://www.w3.org/2000/svg">
<path d="M12 1.99599C13.9466 1.99343 15.8177 2.74884 17.217 4.10215C18.6162 5.45547 19.4336 7.30037 19.496 9.24599L19.5 9.49599V13.593L20.88 16.749C20.963 16.9392 20.9973 17.147 20.9799 17.3538C20.9625 17.5606 20.8939 17.7597 20.7803 17.9334C20.6667 18.107 20.5117 18.2496 20.3292 18.3484C20.1467 18.4471 19.9425 18.4989 19.735 18.499L15 18.502C15.001 19.283 14.6974 20.0336 14.1537 20.5943C13.61 21.155 12.8691 21.4816 12.0885 21.5046C11.3078 21.5276 10.549 21.2454 9.97316 20.7177C9.39736 20.1901 9.05001 19.4587 9.00495 18.679L8.99995 18.499H4.27495C4.06767 18.499 3.86364 18.4475 3.68123 18.349C3.49882 18.2506 3.34375 18.1083 3.22999 17.935C3.11623 17.7618 3.04734 17.5629 3.02953 17.3564C3.01171 17.1499 3.04554 16.9422 3.12795 16.752L4.49995 13.594V9.49599C4.49995 5.34099 7.85195 1.99599 12 1.99599ZM13.5 18.5L10.5 18.502C10.4999 18.8873 10.6481 19.2578 10.9138 19.5368C11.1796 19.8158 11.5425 19.9818 11.9274 20.0005C12.3122 20.0191 12.6895 19.889 12.981 19.637C13.2724 19.385 13.4558 19.0305 13.493 18.647L13.5 18.5ZM12 3.49599C8.67995 3.49599 5.99995 6.16999 5.99995 9.49599V13.906L4.65595 17H19.353L18 13.907V9.50899L17.997 9.28399C17.9445 7.72941 17.2894 6.25619 16.1702 5.17598C15.0509 4.09577 13.5554 3.49329 12 3.49599Z"/>
</svg>
