<svg width="current" height="current" viewBox="0 0 24 24" fill="current" stroke="current" xmlns="http://www.w3.org/2000/svg">
<path d="M6.19005 21.855C6.07794 21.9354 5.94582 21.9833 5.80824 21.9934C5.67066 22.0036 5.53294 21.9756 5.41024 21.9125C5.28754 21.8495 5.18461 21.7538 5.11277 21.636C5.04093 21.5183 5.00297 21.383 5.00305 21.245V6.25C5.00305 5.38805 5.34546 4.5614 5.95496 3.9519C6.56445 3.34241 7.3911 3 8.25305 3H15.7511C16.613 3 17.4397 3.34241 18.0491 3.9519C18.6586 4.5614 19.0011 5.38805 19.0011 6.25V21.246C19.0011 21.384 18.963 21.5194 18.8911 21.6372C18.8191 21.755 18.716 21.8506 18.5932 21.9136C18.4704 21.9766 18.3325 22.0044 18.1949 21.9941C18.0572 21.9837 17.9251 21.9356 17.8131 21.855L12.0031 17.674L6.19005 21.855ZM17.5021 6.25C17.5021 5.78587 17.3177 5.34075 16.9895 5.01256C16.6613 4.68437 16.2162 4.5 15.7521 4.5H8.25305C7.78892 4.5 7.3438 4.68437 7.01562 5.01256C6.68743 5.34075 6.50305 5.78587 6.50305 6.25V19.782L11.5641 16.141C11.6916 16.0492 11.8449 15.9998 12.0021 15.9998C12.1592 15.9998 12.3125 16.0492 12.4401 16.141L17.5011 19.782L17.5021 6.25Z"/>
</svg>
