<svg width="100%" height="100%"  viewBox="0 0 24 24" fill="current" stroke="current" xmlns="http://www.w3.org/2000/svg">
<path d="M13.409 2.51299C12.5054 2.14663 11.4946 2.14663 10.591 2.51299L8.401 3.40099L17.993 7.13099L21.367 5.82799C21.2282 5.71388 21.0732 5.62119 20.907 5.55299L13.409 2.51299ZM22 7.19099L12.75 10.765V21.688C12.974 21.6427 13.1937 21.5763 13.409 21.489L20.907 18.449C21.23 18.3182 21.5065 18.0939 21.7013 17.8049C21.896 17.516 22 17.1754 22 16.827V7.19099ZM11.25 21.688V10.765L2 7.19099V16.828C2.0002 17.1763 2.10431 17.5166 2.29903 17.8054C2.49374 18.0941 2.77019 18.3182 3.093 18.449L10.591 21.489C10.8063 21.5757 11.026 21.6413 11.25 21.688ZM2.633 5.82799L12 9.44699L15.917 7.93299L6.374 4.22299L3.093 5.55299C2.92233 5.62232 2.769 5.71399 2.633 5.82799Z"/>
</svg>
