<svg width="current" height="current" viewBox="0 0 24 24" fill="current" stroke="current" xmlns="http://www.w3.org/2000/svg">
<path d="M17.383 15.5C17.1305 15.0432 17.0487 14.5116 17.152 14H6.25203C5.65581 14.0005 5.08418 14.2377 4.66268 14.6594C4.24119 15.0811 4.00429 15.6528 4.00403 16.249V16.827C4.00403 17.719 4.32203 18.583 4.90203 19.262C6.46803 21.096 8.85403 22.002 12 22.002C12.39 22.002 12.7677 21.9877 13.133 21.959C12.959 21.4736 12.9561 20.9432 13.125 20.456C12.765 20.486 12.39 20.501 12 20.501C9.26203 20.501 7.29603 19.755 6.04303 18.288C5.6946 17.8806 5.50311 17.3621 5.50303 16.826V16.249C5.50303 16.0501 5.58205 15.8593 5.7227 15.7187C5.86335 15.578 6.05412 15.499 6.25303 15.499L17.383 15.5ZM12 2.005C12.6566 2.005 13.3068 2.13433 13.9134 2.38561C14.5201 2.63688 15.0713 3.00518 15.5356 3.46947C15.9999 3.93376 16.3682 4.48496 16.6194 5.09159C16.8707 5.69822 17 6.3484 17 7.005C17 7.66161 16.8707 8.31179 16.6194 8.91842C16.3682 9.52505 15.9999 10.0762 15.5356 10.5405C15.0713 11.0048 14.5201 11.3731 13.9134 11.6244C13.3068 11.8757 12.6566 12.005 12 12.005C10.6739 12.005 9.40218 11.4782 8.46449 10.5405C7.52681 9.60286 7.00003 8.33109 7.00003 7.005C7.00003 5.67892 7.52681 4.40715 8.46449 3.46947C9.40218 2.53179 10.6739 2.005 12 2.005ZM12 3.505C11.5404 3.505 11.0853 3.59554 10.6606 3.77143C10.236 3.94732 9.85016 4.20513 9.52515 4.53013C9.20015 4.85514 8.94234 5.24097 8.76645 5.66561C8.59056 6.09025 8.50003 6.54538 8.50003 7.005C8.50003 7.46463 8.59056 7.91976 8.76645 8.3444C8.94234 8.76904 9.20015 9.15487 9.52515 9.47988C9.85016 9.80488 10.236 10.0627 10.6606 10.2386C11.0853 10.4145 11.5404 10.505 12 10.505C12.9283 10.505 13.8185 10.1363 14.4749 9.47988C15.1313 8.8235 15.5 7.93326 15.5 7.005C15.5 6.07675 15.1313 5.18651 14.4749 4.53013C13.8185 3.87375 12.9283 3.505 12 3.505ZM18.192 13.995L18.668 12.79C18.91 12.176 19.588 11.857 20.216 12.062L20.647 12.203C21.371 12.44 21.973 13.009 21.997 13.772C22.097 16.882 19.521 21.355 16.784 22.827C16.111 23.189 15.316 22.95 14.749 22.436L14.412 22.131C14.1764 21.9177 14.0306 21.6228 14.0043 21.306C13.9779 20.9893 14.0729 20.6743 14.27 20.425L15.07 19.415C15.36 19.048 15.837 18.885 16.29 18.995L17.582 19.308C18.6847 18.578 19.276 17.5517 19.356 16.229L18.439 15.265C18.2808 15.099 18.1735 14.8912 18.1297 14.6661C18.0859 14.4411 18.1076 14.2082 18.192 13.995Z" fill="#383D44"/>
</svg>
