<svg width="24" height="24" viewBox="0 0 24 24" fill="none" xmlns="http://www.w3.org/2000/svg">
<path d="M13.925 2.50399C14.317 2.50396 14.7023 2.60637 15.0426 2.80106C15.3829 2.99576 15.6664 3.27599 15.865 3.61399L16.679 5.00099H18.75C19.6118 5.00099 20.4383 5.34326 21.0477 5.95254C21.6572 6.56182 21.9997 7.38821 22 8.24999V17.75C22 18.1768 21.9159 18.5994 21.7526 18.9937C21.5893 19.388 21.3499 19.7463 21.0481 20.0481C20.7463 20.3499 20.388 20.5893 19.9937 20.7526C19.5994 20.9159 19.1768 21 18.75 21H5.25C4.38805 21 3.5614 20.6576 2.9519 20.0481C2.34241 19.4386 2 18.6119 2 17.75V8.24999C2 7.38804 2.34241 6.56139 2.9519 5.95189C3.5614 5.3424 4.38805 4.99999 5.25 4.99999H7.33L8.205 3.57599C8.40619 3.24821 8.68804 2.97747 9.02364 2.78963C9.35925 2.60178 9.7374 2.50309 10.122 2.50299L13.925 2.50399ZM12 7.99999C10.8065 7.99999 9.66193 8.4741 8.81802 9.31801C7.97411 10.1619 7.5 11.3065 7.5 12.5C7.5 13.6935 7.97411 14.8381 8.81802 15.682C9.66193 16.5259 10.8065 17 12 17C13.1935 17 14.3381 16.5259 15.182 15.682C16.0259 14.8381 16.5 13.6935 16.5 12.5C16.5 11.3065 16.0259 10.1619 15.182 9.31801C14.3381 8.4741 13.1935 7.99999 12 7.99999ZM12 9.49999C12.394 9.49999 12.7841 9.57759 13.1481 9.72835C13.512 9.87912 13.8427 10.1001 14.1213 10.3787C14.3999 10.6572 14.6209 10.988 14.7716 11.3519C14.9224 11.7159 15 12.106 15 12.5C15 12.894 14.9224 13.2841 14.7716 13.648C14.6209 14.012 14.3999 14.3427 14.1213 14.6213C13.8427 14.8999 13.512 15.1209 13.1481 15.2716C12.7841 15.4224 12.394 15.5 12 15.5C11.2044 15.5 10.4413 15.1839 9.87868 14.6213C9.31607 14.0587 9 13.2956 9 12.5C9 11.7043 9.31607 10.9413 9.87868 10.3787C10.4413 9.81606 11.2044 9.49999 12 9.49999Z" fill="black"/>
</svg>
