<svg width="24" height="24" viewBox="0 0 24 24" fill="none" xmlns="http://www.w3.org/2000/svg">
<path d="M13.409 2.51299C12.5054 2.14663 11.4946 2.14663 10.591 2.51299L3.093 5.55299C2.77003 5.68381 2.49347 5.90807 2.29875 6.19704C2.10402 6.48601 2 6.82653 2 7.17499V16.828C2.0002 17.1763 2.10431 17.5166 2.29903 17.8054C2.49374 18.0941 2.77019 18.3182 3.093 18.449L10.591 21.489C10.7263 21.5443 10.8637 21.591 11.003 21.629L11 21.501V20.036L3.656 17.06C3.60984 17.0413 3.57033 17.0092 3.54254 16.9678C3.51474 16.9265 3.49993 16.8778 3.5 16.828V7.74999L11.25 10.764V15.409C11.3987 15.1025 11.6084 14.8296 11.8664 14.6071C12.1243 14.3846 12.425 14.2171 12.75 14.115V10.765L20.5 7.77299V11.551C20.9497 11.7805 21.3276 12.1294 21.5922 12.5594C21.8568 12.9895 21.9979 13.4841 22 13.989V7.17499C22 6.82653 21.896 6.48601 21.7013 6.19704C21.5065 5.90807 21.23 5.68381 20.907 5.55299L13.409 2.51299ZM11.155 3.90299C11.6969 3.68339 12.3031 3.68339 12.845 3.90299L19.438 6.57599L16.768 7.60599L9.241 4.67999L11.155 3.90299ZM7.215 5.49999L14.692 8.40799L12.002 9.44699L4.59 6.56499L7.215 5.49999ZM14 15.001H13.5C13.1022 15.001 12.7206 15.159 12.4393 15.4403C12.158 15.7216 12 16.1032 12 16.501V18.001H14.5V17.751C14.5 17.5521 14.579 17.3613 14.7197 17.2207C14.8603 17.08 15.0511 17.001 15.25 17.001C15.4489 17.001 15.6397 17.08 15.7803 17.2207C15.921 17.3613 16 17.5521 16 17.751V18.001H19V17.751C19 17.5521 19.079 17.3613 19.2197 17.2207C19.3603 17.08 19.5511 17.001 19.75 17.001C19.9489 17.001 20.1397 17.08 20.2803 17.2207C20.421 17.3613 20.5 17.5521 20.5 17.751V18.001H23V16.501C23 16.1032 22.842 15.7216 22.5607 15.4403C22.2794 15.159 21.8978 15.001 21.5 15.001H21V14.001C21 13.5369 20.8156 13.0917 20.4874 12.7636C20.1592 12.4354 19.7141 12.251 19.25 12.251H15.75C15.2859 12.251 14.8408 12.4354 14.5126 12.7636C14.1844 13.0917 14 13.5369 14 14.001V15.001ZM15.5 14.001C15.5 13.9347 15.5263 13.8711 15.5732 13.8242C15.6201 13.7773 15.6837 13.751 15.75 13.751H19.25C19.3163 13.751 19.3799 13.7773 19.4268 13.8242C19.4737 13.8711 19.5 13.9347 19.5 14.001V15.001H15.5V14.001ZM12 21.501V19.501H14.5V20.251C14.5 20.4499 14.579 20.6407 14.7197 20.7813C14.8603 20.922 15.0511 21.001 15.25 21.001C15.4489 21.001 15.6397 20.922 15.7803 20.7813C15.921 20.6407 16 20.4499 16 20.251V19.501H19V20.251C19 20.4499 19.079 20.6407 19.2197 20.7813C19.3603 20.922 19.5511 21.001 19.75 21.001C19.9489 21.001 20.1397 20.922 20.2803 20.7813C20.421 20.6407 20.5 20.4499 20.5 20.251V19.501H23V21.501C23 21.8988 22.842 22.2803 22.5607 22.5617C22.2794 22.843 21.8978 23.001 21.5 23.001H13.5C13.1022 23.001 12.7206 22.843 12.4393 22.5617C12.158 22.2803 12 21.8988 12 21.501Z" fill="black"/>
</svg>
