<svg width="100%" height="100%"  viewBox="0 0 24 24" fill="current" stroke="current" xmlns="http://www.w3.org/2000/svg">
<path d="M10.75 6H17C17.7652 5.99996 18.5015 6.29233 19.0583 6.81728C19.615 7.34224 19.9501 8.06011 19.995 8.824L20 9V10L21 10.018C21.2443 10.0179 21.4802 10.1073 21.6632 10.2692C21.8461 10.4312 21.9634 10.6545 21.993 10.897L22.001 11.017V13.017C22.0012 13.2592 21.9136 13.4932 21.7543 13.6757C21.5951 13.8581 21.375 13.9765 21.135 14.009L21.001 14.018L20 14V15C20 15.7652 19.7077 16.5015 19.1827 17.0583C18.6578 17.615 17.9399 17.9501 17.176 17.995L17 18H7.998C7.80798 17.9999 7.62506 17.9278 7.48621 17.798C7.34736 17.6683 7.26293 17.4907 7.24997 17.3011C7.23702 17.1115 7.29651 16.9241 7.41643 16.7767C7.53635 16.6293 7.70775 16.5329 7.896 16.507L7.998 16.5H17C17.3727 16.5 17.7321 16.3612 18.0081 16.1108C18.2841 15.8603 18.457 15.516 18.493 15.145L18.5 15V9C18.5 8.62727 18.3612 8.2679 18.1108 7.99189C17.8603 7.71589 17.516 7.54303 17.145 7.507L17 7.5H10.75C10.56 7.49994 10.3771 7.42776 10.2382 7.29803C10.0994 7.1683 10.0149 6.9907 10.002 6.80112C9.98902 6.61154 10.0485 6.42411 10.1684 6.2767C10.2883 6.12929 10.4598 6.0329 10.648 6.007L10.75 6ZM6.251 10.998V17.25C6.24923 17.4388 6.17629 17.6201 6.04675 17.7575C5.9172 17.8949 5.74059 17.9783 5.55219 17.9912C5.36378 18.0041 5.17745 17.9454 5.03042 17.8269C4.88338 17.7084 4.78645 17.5388 4.759 17.352L4.752 17.25V10.998H3.75C3.28604 10.998 2.84108 10.8138 2.51292 10.4858C2.18476 10.1578 2.00027 9.71296 2 9.249V6.75C2 6.55109 2.07902 6.36032 2.21967 6.21967C2.36032 6.07902 2.55109 6 2.75 6H3.501V4.75C3.50101 4.56876 3.56664 4.39366 3.68577 4.25707C3.80489 4.12048 3.96945 4.03165 4.149 4.007L4.251 4C4.43224 4.00001 4.60734 4.06564 4.74393 4.18477C4.88052 4.30389 4.96935 4.46845 4.994 4.648L5.001 4.75V6H5.996V4.75C5.99607 4.56846 6.06199 4.39311 6.18152 4.25648C6.30105 4.11985 6.46608 4.03121 6.646 4.007L6.746 4C6.92741 3.99977 7.10276 4.06529 7.23955 4.18444C7.37635 4.30359 7.46533 4.46828 7.49 4.648L7.497 4.75L7.496 6H8.254C8.45291 6 8.64368 6.07902 8.78433 6.21967C8.92498 6.36032 9.004 6.55109 9.004 6.75V9.249C9.004 9.71313 8.81963 10.1582 8.49144 10.4864C8.16325 10.8146 7.71813 10.999 7.254 10.999L6.251 10.998ZM7.504 7.5H3.5V9.249C3.5 9.387 3.612 9.499 3.75 9.499H7.254C7.3203 9.499 7.38389 9.47266 7.43078 9.42578C7.47766 9.37889 7.504 9.3153 7.504 9.249V7.5Z"  />
</svg>
