<svg width="100%" height="100%"  viewBox="0 0 24 24" fill="current" stroke="current" xmlns="http://www.w3.org/2000/svg">
<path d="M4.52997 12.97C4.38779 12.8375 4.19975 12.7654 4.00545 12.7688C3.81114 12.7723 3.62576 12.851 3.48835 12.9884C3.35093 13.1258 3.27222 13.3112 3.26879 13.5055C3.26537 13.6998 3.33749 13.8878 3.46997 14.03L7.96997 18.53C8.11059 18.6705 8.30122 18.7493 8.49997 18.7493C8.69872 18.7493 8.88934 18.6705 9.02997 18.53L20.03 7.53C20.1625 7.38782 20.2346 7.19978 20.2311 7.00548C20.2277 6.81118 20.149 6.62579 20.0116 6.48838C19.8742 6.35096 19.6888 6.27225 19.4945 6.26882C19.3002 6.2654 19.1121 6.33752 18.97 6.47L8.49997 16.94L4.52997 12.97Z"  />
</svg>
