<svg width="current" height="current" viewBox="0 0 24 24" fill="current" stroke="current" xmlns="http://www.w3.org/2000/svg">
<path d="M4.39704 4.554L4.47004 4.47C4.59702 4.34299 4.76538 4.26576 4.94449 4.25236C5.1236 4.23897 5.30157 4.29029 5.44604 4.397L5.53004 4.47L12 10.939L18.47 4.469C18.5393 4.3974 18.622 4.34031 18.7136 4.30104C18.8051 4.26178 18.9035 4.24114 19.0031 4.24032C19.1027 4.2395 19.2014 4.25853 19.2936 4.29628C19.3857 4.33403 19.4694 4.38976 19.5398 4.46022C19.6102 4.53067 19.6659 4.61443 19.7035 4.70662C19.7412 4.79881 19.7601 4.89758 19.7592 4.99716C19.7583 5.09675 19.7376 5.19515 19.6982 5.28664C19.6589 5.37812 19.6017 5.46085 19.53 5.53L13.061 12L19.531 18.47C19.6579 18.5971 19.7349 18.7655 19.7482 18.9446C19.7614 19.1237 19.7099 19.3016 19.603 19.446L19.53 19.53C19.403 19.657 19.2347 19.7343 19.0556 19.7476C18.8765 19.761 18.6985 19.7097 18.554 19.603L18.47 19.53L12 13.061L5.53004 19.531C5.38852 19.6676 5.19903 19.7431 5.00238 19.7413C4.80574 19.7395 4.61766 19.6605 4.47867 19.5214C4.33968 19.3823 4.26089 19.1941 4.25928 18.9975C4.25766 18.8008 4.33335 18.6114 4.47004 18.47L10.939 12L4.46904 5.53C4.34217 5.40289 4.26512 5.23447 4.25191 5.05537C4.2387 4.87626 4.29019 4.69836 4.39704 4.554Z"  />
</svg>
