<svg width="current" height="current" viewBox="0 0 24 24" fill="current" stroke="current" xmlns="http://www.w3.org/2000/svg">
<path d="M18.25 20.5C18.4489 20.5 18.6397 20.579 18.7803 20.7197C18.921 20.8603 19 21.0511 19 21.25C19 21.4489 18.921 21.6397 18.7803 21.7803C18.6397 21.921 18.4489 22 18.25 22L5.25 22.005C5.05109 22.005 4.86032 21.926 4.71967 21.7853C4.57902 21.6447 4.5 21.4539 4.5 21.255C4.5 21.0561 4.57902 20.8653 4.71967 20.7247C4.86032 20.584 5.05109 20.505 5.25 20.505L18.25 20.5ZM11.648 2.014L11.75 2.007C11.9312 2.00701 12.1063 2.07265 12.2429 2.19177C12.3795 2.3109 12.4684 2.47545 12.493 2.655L12.5 2.757L12.499 16.442L16.221 12.722C16.348 12.595 16.5163 12.5178 16.6955 12.5044C16.8746 12.491 17.0525 12.5423 17.197 12.649L17.282 12.722C17.4089 12.8491 17.4859 13.0175 17.4991 13.1966C17.5123 13.3757 17.4608 13.5536 17.354 13.698L17.281 13.782L12.284 18.779C12.157 18.906 11.9887 18.9833 11.8095 18.9966C11.6304 19.01 11.4525 18.9587 11.308 18.852L11.223 18.779L6.22 13.783C6.08546 13.6493 6.00655 13.4697 5.99915 13.2802C5.99176 13.0907 6.05642 12.9054 6.18013 12.7617C6.30384 12.6179 6.47741 12.5264 6.6659 12.5055C6.85439 12.4846 7.0438 12.5359 7.196 12.649L7.28 12.721L10.999 16.435L11 2.756C11 2.57477 11.0656 2.39966 11.1848 2.26307C11.3039 2.12648 11.4684 2.03865 11.648 2.014Z"  />
</svg>
