<svg width="current" height="current" viewBox="0 0 24 24" fill="current" stroke="current" xmlns="http://www.w3.org/2000/svg">
<path d="M8.14297 6.307C8.57697 6.075 9.04397 6.001 9.49897 6.001C10.025 6.001 10.637 6.174 11.13 6.578C11.648 7.002 11.999 7.652 11.999 8.5C11.999 9.475 11.31 10.004 10.922 10.302L10.837 10.368C10.413 10.701 10.249 10.879 10.249 11.25C10.249 11.4489 10.1699 11.6397 10.0293 11.7803C9.88864 11.921 9.69788 12 9.49897 12C9.30005 12 9.10929 11.921 8.96864 11.7803C8.82798 11.6397 8.74897 11.4489 8.74897 11.25C8.74897 10.116 9.45997 9.542 9.91097 9.188C10.424 8.785 10.499 8.695 10.499 8.5C10.499 8.103 10.35 7.878 10.179 7.739C9.98584 7.58544 9.7467 7.50126 9.49997 7.5C9.20497 7.5 9.00197 7.549 8.84997 7.63C8.70697 7.706 8.55597 7.84 8.40997 8.11C8.31515 8.28504 8.15468 8.41525 7.96387 8.47198C7.77305 8.52871 7.56751 8.50732 7.39247 8.4125C7.21742 8.31769 7.08721 8.15722 7.03048 7.9664C6.97375 7.77558 6.99515 7.57004 7.08997 7.395C7.35397 6.909 7.70197 6.542 8.14397 6.306M9.49897 15C9.76418 15 10.0185 14.8946 10.2061 14.7071C10.3936 14.5196 10.499 14.2652 10.499 14C10.499 13.7348 10.3936 13.4804 10.2061 13.2929C10.0185 13.1054 9.76418 13 9.49897 13C9.23375 13 8.97939 13.1054 8.79186 13.2929C8.60432 13.4804 8.49897 13.7348 8.49897 14C8.49897 14.2652 8.60432 14.5196 8.79186 14.7071C8.97939 14.8946 9.23375 15 9.49897 15ZM9.49897 3C8.23747 2.99979 6.9963 3.31778 5.8903 3.92454C4.78431 4.5313 3.84924 5.40724 3.17161 6.47129C2.49398 7.53533 2.09569 8.75311 2.0136 10.0119C1.93151 11.2708 2.16827 12.53 2.70197 13.673L1.97697 16.515C1.92375 16.7238 1.92539 16.9427 1.98174 17.1507C2.03808 17.3586 2.1472 17.5484 2.29853 17.7018C2.44986 17.8551 2.63824 17.9668 2.84542 18.0258C3.05259 18.0849 3.27152 18.0895 3.48097 18.039C4.23097 17.859 5.38397 17.582 6.41197 17.337C7.43168 17.7968 8.54135 18.0227 9.65968 17.9982C10.778 17.9736 11.8767 17.6992 12.8752 17.1951C13.8738 16.691 14.7469 15.9698 15.4307 15.0845C16.1145 14.1993 16.5916 13.1722 16.827 12.0787C17.0625 10.9852 17.0503 9.8528 16.7915 8.76455C16.5327 7.67631 16.0337 6.65974 15.3311 5.78932C14.6285 4.91889 13.7401 4.21664 12.731 3.73401C11.7219 3.25138 10.6176 3.00058 9.49897 3ZM3.49897 10.5C3.49936 9.1953 3.92502 7.92628 4.71145 6.88523C5.49787 5.84419 6.60221 5.08785 7.85711 4.73083C9.11201 4.37381 10.4491 4.43556 11.6657 4.90672C12.8824 5.37789 13.9123 6.23279 14.5994 7.34189C15.2866 8.45099 15.5935 9.75384 15.4736 11.053C15.3537 12.3522 14.8137 13.5769 13.9352 14.5416C13.0568 15.5062 11.8878 16.1583 10.6055 16.3989C9.32317 16.6395 7.99737 16.4556 6.82897 15.875L6.58597 15.754L6.32097 15.817L3.53297 16.484C3.73297 15.704 3.99497 14.672 4.22297 13.776L4.29297 13.5L4.16297 13.247C3.72641 12.3972 3.49811 11.4554 3.49897 10.5ZM14.5 21C12.6082 21.0022 10.7859 20.2876 9.39997 19H9.49997C10.218 19 10.915 18.911 11.581 18.743C12.445 19.225 13.441 19.5 14.501 19.5C15.461 19.5 16.367 19.275 17.171 18.875L17.413 18.754L17.678 18.817C18.6 19.037 19.643 19.262 20.418 19.427C20.2116 18.5415 19.9976 17.6578 19.776 16.776L19.706 16.5L19.836 16.247C20.2729 15.3973 20.5005 14.4555 20.5 13.5C20.5 12.4969 20.2486 11.5099 19.7687 10.6291C19.2889 9.74827 18.5958 9.00182 17.753 8.458C17.5771 7.74358 17.3081 7.05535 16.953 6.411C17.9457 6.75475 18.8552 7.30315 19.6225 8.02069C20.3899 8.73823 20.998 9.60892 21.4075 10.5764C21.817 11.5439 22.0187 12.5865 21.9997 13.6369C21.9807 14.6873 21.7413 15.722 21.297 16.674C21.55 17.682 21.807 18.774 21.969 19.477C22.0165 19.6808 22.0119 19.8932 21.9556 20.0947C21.8992 20.2963 21.7929 20.4803 21.6466 20.6299C21.5002 20.7794 21.3185 20.8896 21.1183 20.9503C20.918 21.011 20.7057 21.0202 20.501 20.977C19.5276 20.7746 18.5565 20.5612 17.588 20.337C16.6174 20.7747 15.5647 21.0007 14.5 21Z" fill="#383D44"/>
</svg>
