<svg width="24" height="24" viewBox="0 0 24 24" fill="none" xmlns="http://www.w3.org/2000/svg">
<path fill-rule="evenodd" clip-rule="evenodd" d="M14.6385 18.978L11.9385 22.353L10.7685 21.4155L13.4685 18.0405C13.4891 18.0139 13.5002 17.9812 13.5 17.9475V12.543C13.5001 12.1921 13.6233 11.8525 13.848 11.583L20.7945 3.246C20.8127 3.22418 20.8243 3.19764 20.828 3.16948C20.8316 3.14132 20.8273 3.11269 20.8153 3.08693C20.8034 3.06116 20.7844 3.03931 20.7605 3.02392C20.7366 3.00853 20.7089 3.00024 20.6805 3H3.31948C3.29096 2.99995 3.26301 3.00804 3.23891 3.02332C3.21482 3.0386 3.19558 3.06043 3.18346 3.08625C3.17134 3.11207 3.16683 3.14082 3.17046 3.16911C3.1741 3.19741 3.18572 3.22408 3.20398 3.246L10.1505 11.583C10.3752 11.8525 10.4983 12.1921 10.4985 12.543V21.3225C10.4987 21.3535 10.5084 21.3837 10.5265 21.4089C10.5445 21.4341 10.5699 21.4531 10.5991 21.4633C10.6284 21.4735 10.6601 21.4744 10.6899 21.4658C10.7197 21.4572 10.7461 21.4397 10.7655 21.4155L11.9385 22.353C10.9635 23.571 8.99848 22.8825 8.99848 21.3225V12.543L2.05198 4.206C1.15648 3.132 1.92148 1.5 3.32098 1.5H20.6805C22.0785 1.5 22.8435 3.132 21.948 4.206L15 12.543V17.9475C14.9999 18.3221 14.8725 18.6855 14.6385 18.978Z" fill="black"/>
</svg>
