<svg width="current" height="current" viewBox="0 0 24 24" fill="current" stroke="current" xmlns="http://www.w3.org/2000/svg">
<path d="M12.8201 5.58L12.0001 6.402L11.1761 5.578C10.168 4.57004 8.80076 4.00383 7.37521 4.00393C5.94965 4.00402 4.58252 4.57041 3.57456 5.5785C2.56661 6.58659 2.00039 7.9538 2.00049 9.37935C2.00058 10.8049 2.56697 12.172 3.57506 13.18L11.4701 21.075C11.6107 21.2155 11.8013 21.2943 12.0001 21.2943C12.1988 21.2943 12.3894 21.2155 12.5301 21.075L20.4321 13.178C21.439 12.1698 22.0044 10.8032 22.0042 9.37829C22.0041 7.95342 21.4382 6.58691 20.4311 5.579C19.9314 5.07904 19.3382 4.68243 18.6852 4.41184C18.0323 4.14124 17.3324 4.00197 16.6256 4.00197C15.9187 4.00197 15.2189 4.14124 14.5659 4.41184C13.9129 4.68243 13.3197 5.08004 12.8201 5.58Z"  />
</svg>
