<svg width="100%" height="100%"  viewBox="0 0 24 24" fill="current" stroke="current" xmlns="http://www.w3.org/2000/svg">
<path d="M10.55 2.533C10.9558 2.19102 11.4693 2.00346 12 2.00346C12.5307 2.00346 13.0442 2.19102 13.45 2.533L20.2 8.227C20.708 8.655 21 9.284 21 9.947V18.75C21 19.3467 20.7629 19.919 20.341 20.341C19.919 20.7629 19.3467 21 18.75 21H5.25C4.65326 21 4.08097 20.7629 3.65901 20.341C3.23705 19.919 3 19.3467 3 18.75V9.947C3 9.284 3.292 8.655 3.8 8.227L10.55 2.533ZM12.484 3.679C12.3486 3.56466 12.1772 3.50192 12 3.50192C11.8228 3.50192 11.6514 3.56466 11.516 3.679L4.766 9.374C4.68265 9.44441 4.61567 9.53216 4.56973 9.63113C4.52378 9.73009 4.49999 9.83789 4.5 9.947V18.75C4.5 19.164 4.836 19.5 5.25 19.5H18.75C18.9489 19.5 19.1397 19.421 19.2803 19.2803C19.421 19.1397 19.5 18.9489 19.5 18.75V9.947C19.5 9.83789 19.4762 9.73009 19.4303 9.63113C19.3843 9.53216 19.3173 9.44441 19.234 9.374L12.484 3.679Z"  />
</svg>
