<svg width="current" height="current" viewBox="0 0 24 24" fill="current" stroke="current" xmlns="http://www.w3.org/2000/svg">
<path d="M12.002 1.99899C17.525 1.99899 22.003 6.47699 22.003 12.001C22.003 17.524 17.525 22.002 12.002 22.002C6.478 22.002 2 17.524 2 12.001C2 6.47699 6.478 1.99899 12.002 1.99899ZM12.002 3.49899C10.8778 3.4868 9.76236 3.69769 8.72022 4.11946C7.67807 4.54124 6.72993 5.16551 5.93066 5.95616C5.13139 6.74681 4.49687 7.68813 4.06382 8.72563C3.63077 9.76314 3.40779 10.8762 3.40779 12.0005C3.40779 13.1248 3.63077 14.2378 4.06382 15.2754C4.49687 16.3129 5.13139 17.2542 5.93066 18.0448C6.72993 18.8355 7.67807 19.4597 8.72022 19.8815C9.76236 20.3033 10.8778 20.5142 12.002 20.502C14.2408 20.4777 16.3796 19.5713 17.9541 17.9796C19.5287 16.3879 20.4118 14.2394 20.4118 12.0005C20.4118 9.76159 19.5287 7.61306 17.9541 6.02136C16.3796 4.42966 14.2408 3.52327 12.002 3.49899ZM12 10.5C12.1989 10.5 12.3897 10.579 12.5303 10.7197C12.671 10.8603 12.75 11.0511 12.75 11.25V16.25C12.75 16.4489 12.671 16.6397 12.5303 16.7803C12.3897 16.921 12.1989 17 12 17C11.8011 17 11.6103 16.921 11.4697 16.7803C11.329 16.6397 11.25 16.4489 11.25 16.25V11.25C11.25 11.0511 11.329 10.8603 11.4697 10.7197C11.6103 10.579 11.8011 10.5 12 10.5ZM12 8.99999C12.2652 8.99999 12.5196 8.89464 12.7071 8.7071C12.8946 8.51956 13 8.26521 13 7.99999C13 7.73478 12.8946 7.48042 12.7071 7.29289C12.5196 7.10535 12.2652 6.99999 12 6.99999C11.7348 6.99999 11.4804 7.10535 11.2929 7.29289C11.1054 7.48042 11 7.73478 11 7.99999C11 8.26521 11.1054 8.51956 11.2929 8.7071C11.4804 8.89464 11.7348 8.99999 12 8.99999Z"  />
</svg>
