<svg width="current" height="current" viewBox="0 0 24 24" fill="current" stroke="current" xmlns="http://www.w3.org/2000/svg">
<path d="M19.745 5C20.3417 5 20.914 5.23705 21.336 5.65901C21.7579 6.08097 21.995 6.65326 21.995 7.25V16.755C21.995 17.3517 21.7579 17.924 21.336 18.346C20.914 18.7679 20.3417 19.005 19.745 19.005H4.25C3.95453 19.005 3.66194 18.9468 3.38896 18.8337C3.11598 18.7207 2.86794 18.5549 2.65901 18.346C2.45008 18.1371 2.28434 17.889 2.17127 17.616C2.0582 17.3431 2 17.0505 2 16.755V7.25C2 6.65326 2.23705 6.08097 2.65901 5.65901C3.08097 5.23705 3.65326 5 4.25 5H19.745ZM17.25 14.5H6.75L6.648 14.507C6.46849 14.5317 6.30399 14.6206 6.18491 14.7571C6.06583 14.8937 6.00023 15.0688 6.00023 15.25C6.00023 15.4312 6.06583 15.6063 6.18491 15.7429C6.30399 15.8794 6.46849 15.9683 6.648 15.993L6.75 16H17.25L17.352 15.993C17.5315 15.9683 17.696 15.8794 17.8151 15.7429C17.9342 15.6063 17.9998 15.4312 17.9998 15.25C17.9998 15.0688 17.9342 14.8937 17.8151 14.7571C17.696 14.6206 17.5315 14.5317 17.352 14.507L17.25 14.5ZM16.5 11C16.2348 11 15.9804 11.1054 15.7929 11.2929C15.6054 11.4804 15.5 11.7348 15.5 12C15.5 12.2652 15.6054 12.5196 15.7929 12.7071C15.9804 12.8946 16.2348 13 16.5 13C16.7652 13 17.0196 12.8946 17.2071 12.7071C17.3946 12.5196 17.5 12.2652 17.5 12C17.5 11.7348 17.3946 11.4804 17.2071 11.2929C17.0196 11.1054 16.7652 11 16.5 11ZM13.505 11C13.2398 11 12.9854 11.1054 12.7979 11.2929C12.6104 11.4804 12.505 11.7348 12.505 12C12.505 12.2652 12.6104 12.5196 12.7979 12.7071C12.9854 12.8946 13.2398 13 13.505 13C13.7702 13 14.0246 12.8946 14.2121 12.7071C14.3996 12.5196 14.505 12.2652 14.505 12C14.505 11.7348 14.3996 11.4804 14.2121 11.2929C14.0246 11.1054 13.7702 11 13.505 11ZM10.505 11C10.2398 11 9.98543 11.1054 9.79789 11.2929C9.61036 11.4804 9.505 11.7348 9.505 12C9.505 12.2652 9.61036 12.5196 9.79789 12.7071C9.98543 12.8946 10.2398 13 10.505 13C10.7702 13 11.0246 12.8946 11.2121 12.7071C11.3996 12.5196 11.505 12.2652 11.505 12C11.505 11.7348 11.3996 11.4804 11.2121 11.2929C11.0246 11.1054 10.7702 11 10.505 11ZM7.505 11C7.23978 11 6.98543 11.1054 6.79789 11.2929C6.61036 11.4804 6.505 11.7348 6.505 12C6.505 12.2652 6.61036 12.5196 6.79789 12.7071C6.98543 12.8946 7.23978 13 7.505 13C7.77022 13 8.02457 12.8946 8.21211 12.7071C8.39964 12.5196 8.505 12.2652 8.505 12C8.505 11.7348 8.39964 11.4804 8.21211 11.2929C8.02457 11.1054 7.77022 11 7.505 11ZM6 8C5.73478 8 5.48043 8.10536 5.29289 8.29289C5.10536 8.48043 5 8.73478 5 9C5 9.26522 5.10536 9.51957 5.29289 9.70711C5.48043 9.89464 5.73478 10 6 10C6.26522 10 6.51957 9.89464 6.70711 9.70711C6.89464 9.51957 7 9.26522 7 9C7 8.73478 6.89464 8.48043 6.70711 8.29289C6.51957 8.10536 6.26522 8 6 8ZM8.995 8C8.72978 8 8.47543 8.10536 8.28789 8.29289C8.10036 8.48043 7.995 8.73478 7.995 9C7.995 9.26522 8.10036 9.51957 8.28789 9.70711C8.47543 9.89464 8.72978 10 8.995 10C9.26022 10 9.51457 9.89464 9.70211 9.70711C9.88964 9.51957 9.995 9.26522 9.995 9C9.995 8.73478 9.88964 8.48043 9.70211 8.29289C9.51457 8.10536 9.26022 8 8.995 8ZM11.995 8C11.7298 8 11.4754 8.10536 11.2879 8.29289C11.1004 8.48043 10.995 8.73478 10.995 9C10.995 9.26522 11.1004 9.51957 11.2879 9.70711C11.4754 9.89464 11.7298 10 11.995 10C12.2602 10 12.5146 9.89464 12.7021 9.70711C12.8896 9.51957 12.995 9.26522 12.995 9C12.995 8.73478 12.8896 8.48043 12.7021 8.29289C12.5146 8.10536 12.2602 8 11.995 8ZM14.995 8C14.7298 8 14.4754 8.10536 14.2879 8.29289C14.1004 8.48043 13.995 8.73478 13.995 9C13.995 9.26522 14.1004 9.51957 14.2879 9.70711C14.4754 9.89464 14.7298 10 14.995 10C15.2602 10 15.5146 9.89464 15.7021 9.70711C15.8896 9.51957 15.995 9.26522 15.995 9C15.995 8.73478 15.8896 8.48043 15.7021 8.29289C15.5146 8.10536 15.2602 8 14.995 8ZM17.995 8C17.7298 8 17.4754 8.10536 17.2879 8.29289C17.1004 8.48043 16.995 8.73478 16.995 9C16.995 9.26522 17.1004 9.51957 17.2879 9.70711C17.4754 9.89464 17.7298 10 17.995 10C18.2602 10 18.5146 9.89464 18.7021 9.70711C18.8896 9.51957 18.995 9.26522 18.995 9C18.995 8.73478 18.8896 8.48043 18.7021 8.29289C18.5146 8.10536 18.2602 8 17.995 8Z"  />
</svg>
