<svg width="100%" height="100%"  viewBox="0 0 24 24" fill="current" stroke="current" xmlns="http://www.w3.org/2000/svg">
<path d="M10.733 19.79C10.8781 19.9213 11.0687 19.9906 11.2642 19.9834C11.4596 19.9761 11.6445 19.8927 11.7794 19.751C11.9143 19.6094 11.9885 19.4206 11.9862 19.225C11.9839 19.0294 11.9052 18.8424 11.767 18.704L5.51603 12.75H20.25C20.4489 12.75 20.6397 12.671 20.7804 12.5303C20.921 12.3897 21 12.1989 21 12C21 11.8011 20.921 11.6103 20.7804 11.4697C20.6397 11.329 20.4489 11.25 20.25 11.25H5.51603L11.767 5.295C11.9052 5.15656 11.9839 4.9696 11.9862 4.774C11.9885 4.5784 11.9143 4.38963 11.7794 4.24796C11.6445 4.10628 11.4596 4.02292 11.2642 4.01564C11.0687 4.00836 10.8781 4.07775 10.733 4.209L3.31303 11.276C3.15095 11.4303 3.04531 11.6345 3.01303 11.856C2.99582 11.9516 2.99615 12.0495 3.01403 12.145C3.04652 12.3661 3.15214 12.5699 3.31403 12.724L10.733 19.79Z"  />
</svg>
