<svg width="current" height="current" viewBox="0 0 24 24" fill="current" stroke="current" xmlns="http://www.w3.org/2000/svg">
<path d="M7.42495 2.83C7.51164 2.587 7.6714 2.37677 7.88231 2.22817C8.09322 2.07956 8.34495 1.99986 8.60295 2H15.056C15.254 1.99999 15.4492 2.04704 15.6255 2.13727C15.8018 2.2275 15.9541 2.35832 16.07 2.51897C16.1858 2.67962 16.2618 2.86548 16.2917 3.06125C16.3216 3.25703 16.3045 3.4571 16.242 3.645L14.79 8H18.75C19.853 8 20.415 9.327 19.647 10.12L8.58596 21.536C7.53196 22.624 5.71395 21.642 6.04495 20.164L7.31495 14.496L5.74495 14.49C5.4653 14.4888 5.19002 14.4206 4.94216 14.2911C4.6943 14.1616 4.48108 13.9745 4.32038 13.7457C4.15967 13.5168 4.05616 13.2528 4.0185 12.9757C3.98085 12.6985 4.01015 12.4165 4.10395 12.153L7.42495 2.83Z"  />
</svg>
