<svg width="100%" height="100%" viewBox="0 0 24 24" fill="current" xmlns="http://www.w3.org/2000/svg">
<circle cx="7.7635" cy="15.7708" r="4.35628" />
<circle cx="16.6514" cy="17.0586" r="3.94139" />
<path d="M5.02356 5.07666C8.728 2.30846 12.5468 2.30744 16.2503 5.07565L16.3036 5.11819L16.3755 5.18849L16.442 5.2679L16.4539 5.28512C16.5946 5.48364 16.6549 5.73048 16.6219 5.97369L16.6014 6.07883L16.5738 6.16614C15.7029 8.62968 15.9355 10.8411 17.0361 13.1359C16.9095 13.1236 16.7811 13.1173 16.6512 13.1173C16.1125 13.1173 15.599 13.2254 15.1313 13.4211C14.3458 11.5885 14.0272 9.74758 14.2819 7.81453C14.1288 7.88779 13.9754 7.95654 13.8218 8.02096L13.9085 7.96039C11.881 9.32579 10.6815 10.7496 10.2635 12.203C9.76034 11.8498 9.1792 11.6002 8.55088 11.4855C8.86296 10.5028 9.41761 9.56443 10.2086 8.67083C8.5546 8.57988 6.90245 7.95188 5.27152 6.78948L5.02437 6.60938L4.97737 6.5715L4.93503 6.53362L4.89431 6.49189L4.85744 6.44833L4.82057 6.40093L4.7912 6.35656L4.75879 6.29964L4.70996 6.19551L4.67492 6.08551L4.65385 5.9747L4.64919 5.93499L4.64453 5.82317L4.65385 5.71135L4.67492 5.60053L4.70996 5.49155L4.73772 5.42895L4.75879 5.38641L4.7912 5.32948L4.82057 5.28593L4.85744 5.23771L4.89431 5.19416L4.93503 5.15243L4.97737 5.11455L5.02356 5.07666Z" />
</svg>
