<svg width="79" height="24" viewBox="0 0 79 24" fill="none" xmlns="http://www.w3.org/2000/svg">
<path d="M68.7586 15.9513L63.6548 5.16504H68.7025L71.1142 10.7646L73.4978 5.16504H78.5455L70.1046 23.1738H65.0569L68.7586 15.9513Z" fill="#383D44"/>
<path d="M54.2061 5.16504H58.8612V6.92506L63.2358 5.16504V9.87217L58.8612 11.5175V19.6881H54.2061V5.16504Z" fill="#383D44"/>
<path d="M43.6353 5.16504L48.2904 5.16552V6.92553L52.665 5.16552V9.87265L48.2904 11.5179V19.6885H43.6353V5.16504Z" fill="#383D44"/>
<path d="M34.5395 19.7156C33.2112 19.7156 31.9845 19.3946 30.8591 18.7526C29.7339 18.0921 28.8391 17.2024 28.1751 16.0834C27.5293 14.9644 27.2065 13.7444 27.2065 12.4237C27.2065 11.1028 27.5293 9.89209 28.1751 8.79142C28.8391 7.67239 29.7339 6.79185 30.8591 6.14979C31.9845 5.48938 33.2112 5.15918 34.5395 5.15918C35.923 5.15918 37.1683 5.50773 38.2751 6.20482C39.4005 6.88357 40.2767 7.78246 40.904 8.90148C41.5312 10.0022 41.8448 11.167 41.8448 12.3962C41.8448 12.7447 41.8171 13.1024 41.7618 13.4693H31.717C31.9199 14.038 32.2796 14.5058 32.7961 14.8726C33.3127 15.2395 33.8938 15.423 34.5395 15.423C35.3143 15.423 35.9876 15.157 36.5596 14.625H41.5127C41.0331 16.1293 40.1568 17.3584 38.884 18.3123C37.611 19.2478 36.1629 19.7156 34.5395 19.7156ZM37.1406 10.9652C36.8824 10.5066 36.5226 10.1397 36.0614 9.86458C35.6002 9.58941 35.0929 9.45182 34.5395 9.45182C33.986 9.45182 33.4787 9.58941 33.0175 9.86458C32.5564 10.1397 32.1874 10.5066 31.9107 10.9652H37.1406Z" fill="#383D44"/>
<path d="M12.2788 0H16.7656V5.46565C17.4386 5.24256 18.1397 5.1645 18.8688 5.1645C20.0653 5.1645 21.1589 5.42847 22.1498 6.02336C23.1593 6.59968 23.9538 7.38978 24.5334 8.39367C25.1317 9.37898 25.4308 10.4665 25.4308 11.6564V19.7154H20.944V11.6564C20.944 11.0801 20.7383 10.5967 20.327 10.2063C19.9344 9.79727 19.4484 9.59278 18.8688 9.59278C18.2893 9.59278 17.7938 9.78797 17.3825 10.1784C16.9899 10.5688 16.7936 11.0614 16.7936 11.6564V19.7154H12.3068V19.6874H12.2788V0Z" fill="#383D44"/>
<path d="M10.3198 19.6876C8.39422 19.6876 6.64615 19.2584 5.07578 18.4001C3.50542 17.5238 2.26222 16.3437 1.34607 14.8595C0.448691 13.3574 0 11.6855 0 9.84375C0 8.00196 0.448691 6.33898 1.34607 4.85482C2.26222 3.35278 3.50542 2.1726 5.07578 1.31429C6.64615 0.438096 8.39422 0 10.3198 0V4.3452C9.23542 4.3452 8.25393 4.58659 7.37531 5.0694C6.49658 5.55219 5.80495 6.21381 5.30007 7.05424C4.79531 7.89467 4.54298 8.8245 4.54298 9.84375C4.54298 10.863 4.79531 11.7929 5.30007 12.6333C5.80495 13.4737 6.49658 14.1353 7.37531 14.6181C8.25393 15.1009 9.23542 15.3423 10.3198 15.3423V19.6876Z" fill="#383D44"/>
</svg>
