<svg width="24" height="24" viewBox="0 0 24 24" fill="none" xmlns="http://www.w3.org/2000/svg">
<path d="M15 4.248C14.9999 4.00972 14.9317 3.77643 14.8034 3.57563C14.6751 3.37482 14.4921 3.21487 14.2759 3.11462C14.0598 3.01436 13.8194 2.97798 13.5833 3.00977C13.3471 3.04155 13.125 3.14017 12.943 3.294L7.975 7.498H4.25C3.65326 7.498 3.08097 7.73506 2.65901 8.15701C2.23705 8.57897 2 9.15127 2 9.748V14.248C2 14.8447 2.23705 15.417 2.65901 15.839C3.08097 16.2609 3.65326 16.498 4.25 16.498H7.975L12.942 20.704C13.124 20.8581 13.3462 20.957 13.5825 20.989C13.8188 21.0209 14.0594 20.9846 14.2757 20.8843C14.4921 20.784 14.6752 20.624 14.8035 20.423C14.9319 20.222 15 19.9885 15 19.75V4.248ZM8.525 8.998L13.5 4.788V19.21L8.525 14.998H4.25C4.05109 14.998 3.86032 14.919 3.71967 14.7783C3.57902 14.6377 3.5 14.4469 3.5 14.248V9.748C3.5 9.54909 3.57902 9.35832 3.71967 9.21767C3.86032 9.07702 4.05109 8.998 4.25 8.998H8.525ZM16.163 13.955L17.5 15.999V17.999C17.5 18.2642 17.6054 18.5186 17.7929 18.7061C17.9804 18.8936 18.2348 18.999 18.5 18.999H20.5C20.7652 18.999 21.0196 18.8936 21.2071 18.7061C21.3946 18.5186 21.5 18.2642 21.5 17.999V15.999L22.833 13.994C22.942 13.8298 23.0001 13.6371 23 13.44V10C23 9.73479 22.8946 9.48043 22.7071 9.2929C22.5196 9.10536 22.2652 9 22 9V7C22 6.73479 21.8946 6.48043 21.7071 6.2929C21.5196 6.10536 21.2652 6 21 6H18C17.7348 6 17.4804 6.10536 17.2929 6.2929C17.1054 6.48043 17 6.73479 17 7V9C16.7348 9 16.4804 9.10536 16.2929 9.2929C16.1054 9.48043 16 9.73479 16 10V13.408C16 13.6023 16.0567 13.7924 16.163 13.955ZM18.5 7.5H20.5V9H18.5V7.5Z" fill="black"/>
</svg>
