<svg width="24" height="24" viewBox="0 0 24 24" fill="none" xmlns="http://www.w3.org/2000/svg">
<path d="M18.251 3C17.6544 3.00027 17.0824 3.23744 16.6607 3.65936C16.2389 4.08129 16.002 4.65344 16.002 5.25V11.174C17.5198 10.8161 19.1156 11.0141 20.5 11.732V5.25C20.5 4.65344 20.2631 4.08129 19.8413 3.65936C19.4196 3.23744 18.8476 3.00027 18.251 3ZM14.001 9.25V12.022C13.081 12.6096 12.3239 13.4195 11.7994 14.3769C11.2749 15.3343 11 16.4084 11 17.5C10.998 18.7344 11.3491 19.9437 12.012 20.985C11.9267 20.995 11.8397 21 11.751 21C11.1544 20.9997 10.5824 20.7626 10.1607 20.3406C9.73892 19.9187 9.502 19.3466 9.502 18.75V9.25C9.49302 8.94901 9.54455 8.64929 9.65354 8.36858C9.76252 8.08788 9.92674 7.8319 10.1365 7.61583C10.3462 7.39975 10.5972 7.22798 10.8745 7.11067C11.1518 6.99337 11.4499 6.93293 11.751 6.93293C12.0521 6.93293 12.3502 6.99337 12.6275 7.11067C12.9048 7.22798 13.1558 7.39975 13.3655 7.61583C13.5753 7.8319 13.7395 8.08788 13.8485 8.36858C13.9574 8.64929 14.009 8.94901 14 9.25M3.001 13.25C2.99202 12.949 3.04355 12.6493 3.15254 12.3686C3.26152 12.0879 3.42574 11.8319 3.63547 11.6158C3.8452 11.3998 4.09616 11.228 4.37349 11.1107C4.65082 10.9934 4.94888 10.9329 5.25 10.9329C5.55112 10.9329 5.84918 10.9934 6.12651 11.1107C6.40384 11.228 6.6548 11.3998 6.86453 11.6158C7.07426 11.8319 7.23848 12.0879 7.34746 12.3686C7.45645 12.6493 7.50798 12.949 7.499 13.25V18.75C7.50798 19.051 7.45645 19.3507 7.34746 19.6314C7.23848 19.9121 7.07426 20.1681 6.86453 20.3842C6.6548 20.6002 6.40384 20.772 6.12651 20.8893C5.84918 21.0066 5.55112 21.0671 5.25 21.0671C4.94888 21.0671 4.65082 21.0066 4.37349 20.8893C4.09616 20.772 3.8452 20.6002 3.63547 20.3842C3.42574 20.1681 3.26152 19.9121 3.15254 19.6314C3.04355 19.3507 2.99202 19.051 3.001 18.75V13.25ZM23 17.5C23 18.9587 22.4205 20.3576 21.3891 21.3891C20.3576 22.4205 18.9587 23 17.5 23C16.0413 23 14.6424 22.4205 13.6109 21.3891C12.5795 20.3576 12 18.9587 12 17.5C12 16.0413 12.5795 14.6424 13.6109 13.6109C14.6424 12.5795 16.0413 12 17.5 12C18.9587 12 20.3576 12.5795 21.3891 13.6109C22.4205 14.6424 23 16.0413 23 17.5ZM18.055 14.42C18.0207 14.2993 17.9479 14.193 17.8478 14.1174C17.7476 14.0417 17.6255 14.0008 17.5 14.0008C17.3745 14.0008 17.2524 14.0417 17.1522 14.1174C17.0521 14.193 16.9793 14.2993 16.945 14.42L16.388 16.208H14.585C14.019 16.208 13.785 16.962 14.242 17.308L15.7 18.413L15.143 20.2C14.968 20.761 15.584 21.228 16.042 20.881L17.5 19.777L18.958 20.881C19.416 21.228 20.032 20.761 19.857 20.201L19.3 18.413L20.758 17.309C21.216 16.962 20.981 16.208 20.415 16.208H18.612L18.055 14.42Z" fill="black"/>
</svg>
