<svg width="100%" height="100%"  viewBox="0 0 24 24" fill="current" stroke="current" xmlns="http://www.w3.org/2000/svg">
<path d="M13.409 2.51299C12.5054 2.14663 11.4946 2.14663 10.591 2.51299L8.401 3.40099L17.993 7.13099L21.367 5.82799C21.2282 5.71388 21.0732 5.62119 20.907 5.55299L13.409 2.51299ZM22 7.19099L12.75 10.765V13.065C13.3572 12.4127 14.0924 11.8926 14.9097 11.5373C15.727 11.182 16.6088 10.9991 17.5 11C19.247 11 20.832 11.689 22 12.81V7.19099ZM11.25 10.765V15.71C11.0836 16.2924 10.9995 16.8953 11 17.501C11 18.122 11.087 18.723 11.25 19.291V21.688C11.025 21.6407 10.8045 21.5741 10.591 21.489L3.093 18.449C2.77003 18.3182 2.49347 18.0939 2.29875 17.8049C2.10402 17.516 2 17.1754 2 16.827V7.19199L11.25 10.765ZM2.633 5.82799L12 9.44699L15.917 7.93299L6.374 4.22299L3.093 5.55299C2.92233 5.62232 2.769 5.71399 2.633 5.82799ZM17.5 23C18.9587 23 20.3576 22.4205 21.3891 21.3891C22.4205 20.3576 23 18.9587 23 17.5C23 16.0413 22.4205 14.6424 21.3891 13.6109C20.3576 12.5795 18.9587 12 17.5 12C16.0413 12 14.6424 12.5795 13.6109 13.6109C12.5795 14.6424 12 16.0413 12 17.5C12 18.9587 12.5795 20.3576 13.6109 21.3891C14.6424 22.4205 16.0413 23 17.5 23ZM20.146 15.146C20.2398 15.0521 20.367 14.9993 20.4996 14.9992C20.6323 14.9991 20.7596 15.0517 20.8535 15.1455C20.9474 15.2392 21.0002 15.3665 21.0003 15.4991C21.0004 15.6318 20.9478 15.7591 20.854 15.853L16.854 19.853C16.8076 19.8996 16.7524 19.9365 16.6916 19.9617C16.6309 19.9869 16.5658 19.9999 16.5 19.9999C16.4342 19.9999 16.3691 19.9869 16.3084 19.9617C16.2476 19.9365 16.1924 19.8996 16.146 19.853L14.146 17.853C14.0996 17.8065 14.0628 17.7513 14.0377 17.6906C14.0126 17.6299 13.9997 17.5648 13.9997 17.4991C13.9998 17.4334 14.0128 17.3684 14.0379 17.3077C14.0631 17.247 14.1 17.1919 14.1465 17.1455C14.193 17.0991 14.2482 17.0623 14.3089 17.0372C14.3696 17.0121 14.4347 16.9992 14.5004 16.9992C14.5661 16.9993 14.6311 17.0122 14.6918 17.0374C14.7525 17.0626 14.8076 17.0995 14.854 17.146L16.5 18.793L20.146 15.146Z"  />
</svg>
