<svg width="24" height="24" viewBox="0 0 24 24" fill="none" xmlns="http://www.w3.org/2000/svg">
<path d="M16.25 5.18C16.1294 5.33821 16.0767 5.53781 16.1033 5.73491C16.13 5.932 16.2338 6.11045 16.392 6.231C17.5451 7.10917 18.4085 8.31276 18.8709 9.68645C19.3333 11.0601 19.3734 12.5409 18.986 13.9376C18.5986 15.3343 17.8015 16.5828 16.6976 17.5221C15.5937 18.4614 14.2337 19.0483 12.793 19.207L13.47 18.53C13.6042 18.3962 13.6827 18.2165 13.6898 18.0271C13.697 17.8377 13.6321 17.6527 13.5084 17.5092C13.3846 17.3656 13.2111 17.2743 13.0227 17.2535C12.8343 17.2327 12.6451 17.284 12.493 17.397L12.409 17.47L10.409 19.47C10.2819 19.597 10.2047 19.7653 10.1913 19.9445C10.1779 20.1236 10.2292 20.3015 10.336 20.446L10.409 20.53L12.409 22.53C12.543 22.663 12.7222 22.7405 12.9108 22.7471C13.0995 22.7538 13.2837 22.689 13.4267 22.5658C13.5697 22.4426 13.661 22.27 13.6824 22.0825C13.7038 21.8949 13.6536 21.7062 13.542 21.554L13.47 21.47L12.72 20.72C14.483 20.574 16.1604 19.897 17.5309 18.7783C18.9014 17.6596 19.9006 16.1518 20.3967 14.4536C20.8929 12.7555 20.8626 10.9469 20.3099 9.26633C19.7572 7.58577 18.7081 6.11221 17.301 5.04C17.1429 4.91937 16.9434 4.86646 16.7463 4.8929C16.5492 4.91935 16.3707 5.02297 16.25 5.181M10.53 1.471C10.3895 1.61163 10.3106 1.80225 10.3106 2.001C10.3106 2.19975 10.3895 2.39038 10.53 2.531L11.28 3.281C9.54525 3.4239 7.89258 4.08091 6.53325 5.16804C5.17391 6.25517 4.1697 7.72301 3.649 9.38388C3.12829 11.0448 3.11477 12.8232 3.61016 14.4918C4.10554 16.1604 5.08732 17.6433 6.42996 18.751C6.50593 18.8138 6.59352 18.861 6.68773 18.8899C6.78194 18.9188 6.88092 18.9289 6.97903 18.9196C7.07713 18.9102 7.17244 18.8817 7.2595 18.8355C7.34657 18.7893 7.42369 18.7265 7.48646 18.6505C7.54923 18.5745 7.59643 18.4869 7.62535 18.3927C7.65427 18.2985 7.66435 18.1995 7.65502 18.1014C7.64569 18.0033 7.61713 17.908 7.57096 17.821C7.5248 17.7339 7.46193 17.6568 7.38596 17.594C6.28668 16.6869 5.47909 15.4759 5.06413 14.1124C4.64917 12.7489 4.64524 11.2934 5.05282 9.92769C5.4604 8.56198 6.26142 7.34666 7.35578 6.43361C8.45015 5.52056 9.78932 4.95027 11.206 4.794L10.53 5.471C10.4584 5.54022 10.4013 5.62301 10.362 5.71453C10.3227 5.80605 10.3021 5.90447 10.3013 6.00406C10.3005 6.10364 10.3195 6.20239 10.3572 6.29455C10.395 6.3867 10.4507 6.47041 10.5212 6.5408C10.5916 6.61119 10.6754 6.66684 10.7676 6.7045C10.8598 6.74217 10.9585 6.7611 11.0581 6.76019C11.1577 6.75928 11.2561 6.73854 11.3476 6.69919C11.4391 6.65984 11.5218 6.60267 11.591 6.531L13.591 4.531C13.7314 4.39038 13.8103 4.19975 13.8103 4.001C13.8103 3.80225 13.7314 3.61163 13.591 3.471L11.591 1.471C11.4503 1.33055 11.2597 1.25166 11.061 1.25166C10.8622 1.25166 10.6716 1.33055 10.531 1.471" fill="black"/>
</svg>
