<svg width="100%" height="100%"  viewBox="0 0 24 24" fill="current" stroke="current" xmlns="http://www.w3.org/2000/svg">
<path d="M6.99995 19.25C6.99995 19.664 7.33595 20 7.74995 20H14C15.979 20 17.504 19.177 18.52 17.926C19.52 16.693 20 15.08 20 13.5C20 11.92 19.52 10.307 18.52 9.074C17.504 7.823 15.979 7 14 7H7.55995L10.03 4.53C10.1036 4.46134 10.1627 4.37854 10.2037 4.28654C10.2447 4.19454 10.2668 4.09523 10.2685 3.99452C10.2703 3.89382 10.2518 3.79379 10.2141 3.7004C10.1764 3.60702 10.1202 3.52218 10.049 3.45096C9.97777 3.37974 9.89294 3.3236 9.79955 3.28588C9.70616 3.24816 9.60613 3.22963 9.50543 3.23141C9.40473 3.23319 9.30541 3.25523 9.21341 3.29622C9.12141 3.33721 9.03861 3.39631 8.96995 3.47L5.21995 7.22C5.0795 7.36063 5.00061 7.55125 5.00061 7.75C5.00061 7.94875 5.0795 8.13938 5.21995 8.28L8.96995 12.03C9.03861 12.1037 9.12141 12.1628 9.21341 12.2038C9.30541 12.2448 9.40473 12.2668 9.50543 12.2686C9.60613 12.2704 9.70616 12.2518 9.79955 12.2141C9.89294 12.1764 9.97777 12.1203 10.049 12.049C10.1202 11.9778 10.1764 11.893 10.2141 11.7996C10.2518 11.7062 10.2703 11.6062 10.2685 11.5055C10.2668 11.4048 10.2447 11.3055 10.2037 11.2135C10.1627 11.1215 10.1036 11.0387 10.03 10.97L7.55995 8.5H14C15.521 8.5 16.62 9.115 17.3549 10.02C18.1049 10.943 18.5 12.205 18.5 13.5C18.5 14.795 18.1039 16.057 17.3549 16.98C16.6209 17.885 15.521 18.5 14 18.5H7.74995C7.55104 18.5 7.36027 18.579 7.21962 18.7197C7.07897 18.8603 6.99995 19.0511 6.99995 19.25Z"  />
</svg>
