<svg width="100%" height="100%"  viewBox="0 0 24 24" fill="current" stroke="current" xmlns="http://www.w3.org/2000/svg">
<path d="M6 8.75C6 8.55109 6.07902 8.36032 6.21967 8.21967C6.36032 8.07902 6.55109 8 6.75 8H11.25C11.4489 8 11.6397 8.07902 11.7803 8.21967C11.921 8.36032 12 8.55109 12 8.75C12 8.94891 11.921 9.13968 11.7803 9.28033C11.6397 9.42098 11.4489 9.5 11.25 9.5H6.75C6.55109 9.5 6.36032 9.42098 6.21967 9.28033C6.07902 9.13968 6 8.94891 6 8.75ZM6.75 11C6.55109 11 6.36032 11.079 6.21967 11.2197C6.07902 11.3603 6 11.5511 6 11.75C6 11.9489 6.07902 12.1397 6.21967 12.2803C6.36032 12.421 6.55109 12.5 6.75 12.5H15.25C15.4489 12.5 15.6397 12.421 15.7803 12.2803C15.921 12.1397 16 11.9489 16 11.75C16 11.5511 15.921 11.3603 15.7803 11.2197C15.6397 11.079 15.4489 11 15.25 11H6.75ZM6 14.75C6 14.5511 6.07902 14.3603 6.21967 14.2197C6.36032 14.079 6.55109 14 6.75 14H13.25C13.4489 14 13.6397 14.079 13.7803 14.2197C13.921 14.3603 14 14.5511 14 14.75C14 14.9489 13.921 15.1397 13.7803 15.2803C13.6397 15.421 13.4489 15.5 13.25 15.5H6.75C6.55109 15.5 6.36032 15.421 6.21967 15.2803C6.07902 15.1397 6 14.9489 6 14.75ZM2 6.75C2 6.02065 2.28973 5.32118 2.80546 4.80546C3.32118 4.28973 4.02065 4 4.75 4H19.25C19.9793 4 20.6788 4.28973 21.1945 4.80546C21.7103 5.32118 22 6.02065 22 6.75V11.26C21.5265 11.06 21.0129 10.9734 20.5 11.007V6.75C20.5 6.06 19.94 5.5 19.25 5.5H4.75C4.06 5.5 3.5 6.06 3.5 6.75V17.25C3.5 17.94 4.06 18.5 4.75 18.5H11.982C11.772 18.83 11.617 19.194 11.521 19.577L11.415 20H4.75C4.02065 20 3.32118 19.7103 2.80546 19.1945C2.28973 18.6788 2 17.9793 2 17.25V6.75ZM19.1 12.67L13.197 18.572C12.8536 18.9165 12.6097 19.3473 12.491 19.819L12.033 21.65C11.9875 21.8322 11.9899 22.023 12.04 22.204C12.0902 22.385 12.1864 22.5498 12.3192 22.6826C12.452 22.8153 12.617 22.9114 12.798 22.9614C12.979 23.0114 13.1699 23.0137 13.352 22.968L15.182 22.511C15.6541 22.3922 16.0854 22.1479 16.43 21.804L22.332 15.902C22.7441 15.4701 22.9709 14.8941 22.9639 14.2971C22.9569 13.7002 22.7166 13.1297 22.2945 12.7075C21.8723 12.2854 21.3018 12.0451 20.7049 12.0381C20.1079 12.0311 19.5319 12.2579 19.1 12.67Z"  />
</svg>
