<svg width="100%" height="100%"  viewBox="0 0 24 24" fill="current" stroke="current" xmlns="http://www.w3.org/2000/svg">
<path d="M13.267 4.209C13.122 4.07775 12.9314 4.00836 12.7359 4.01564C12.5404 4.02292 12.3555 4.10628 12.2206 4.24796C12.0857 4.38963 12.0115 4.5784 12.0138 4.774C12.0161 4.9696 12.0948 5.15656 12.233 5.295L18.484 11.25H3.75C3.55109 11.25 3.36032 11.329 3.21967 11.4697C3.07902 11.6103 3 11.8011 3 12C3 12.1989 3.07902 12.3897 3.21967 12.5303C3.36032 12.671 3.55109 12.75 3.75 12.75H18.484L12.233 18.704C12.0889 18.8411 12.0051 19.0299 12.0001 19.2288C11.9951 19.4276 12.0694 19.6204 12.2065 19.7645C12.3436 19.9086 12.5324 19.9924 12.7313 19.9974C12.9301 20.0024 13.1229 19.9281 13.267 19.791L20.687 12.724C20.8491 12.5697 20.9547 12.3655 20.987 12.144C21.0043 12.0481 21.004 11.9498 20.986 11.854C20.9533 11.6333 20.8477 11.4298 20.686 11.276L13.267 4.209Z"  />
</svg>
