<svg width="100%" height="100%" viewBox="0 0 65 32" fill="none" xmlns="http://www.w3.org/2000/svg">
<path d="M0 16C0 7.16344 7.16344 0 16 0H49C57.8366 0 65 7.16344 65 16V16C65 24.8366 57.8366 32 49 32H16C7.16344 32 0 24.8366 0 16V16Z" fill="#F44236"/>
<path d="M26.5039 7.13184C26.9834 6.85783 27.5942 7.0244 27.8682 7.50392L31.5801 14H34C34.5523 14 35 14.4477 35 15C35 15.5523 34.5523 16 34 16H33.3955L31.875 22.624L31.873 22.6231C31.7291 23.3013 31.3562 23.9093 30.8145 24.3428C30.2716 24.777 29.595 25.0083 28.9004 24.999V25H19.0996V24.999C18.405 25.0083 17.7284 24.777 17.1855 24.3428C16.6375 23.9043 16.2604 23.2874 16.1201 22.5996V22.5986L14.6934 16H14C13.4477 16 13 15.5523 13 15C13 14.4477 13.4477 14 14 14H16.4199L20.1318 7.50392C20.4058 7.0244 21.0166 6.85783 21.4961 7.13184C21.9756 7.40585 22.1422 8.01659 21.8682 8.4961L18.7227 14H29.2773L26.1318 8.4961C25.8578 8.01659 26.0244 7.40586 26.5039 7.13184ZM18.0771 22.1885L18.0801 22.2002L18.1006 22.2852C18.1584 22.48 18.2748 22.6534 18.4346 22.7813C18.6173 22.9274 18.8461 23.0047 19.0801 23H20.8828L20.6045 20.5H17.7119L18.0771 22.1885ZM27.1172 23H28.9199C29.1539 23.0047 29.3827 22.9274 29.5654 22.7813C29.748 22.6351 29.8732 22.4294 29.9199 22.2002C29.9216 22.1921 29.9239 22.1838 29.9258 22.1758L30.3105 20.5H27.3955L27.1172 23ZM22.8955 23H25.1045L25.3828 20.5H22.6172L22.8955 23ZM27.6172 18.5H30.7695L31.3438 16H27.8955L27.6172 18.5ZM22.3955 18.5H25.6045L25.8828 16H22.1172L22.3955 18.5ZM17.2793 18.5H20.3828L20.1045 16H16.7393L17.2793 18.5Z" fill="white"/>
<path d="M45.1025 20.5V19.2148L48.6025 15.8379C49.6006 14.8398 50.1201 14.252 50.1201 13.418C50.1201 12.502 49.3955 11.9141 48.4248 11.9141C47.3994 11.9141 46.7432 12.5566 46.7568 13.5547H45.0615C45.0479 11.6816 46.4561 10.4648 48.4385 10.4648C50.4619 10.4648 51.8291 11.668 51.8291 13.3359C51.8291 14.457 51.2822 15.3594 49.3408 17.1914L47.5771 18.9414V19.0098H51.9795V20.5H45.1025Z" fill="white"/>
</svg>
