<svg width="65" height="32" viewBox="0 0 65 32" fill="none" xmlns="http://www.w3.org/2000/svg">
<path d="M0 16C0 7.16344 7.16344 0 16 0H49C57.8366 0 65 7.16344 65 16V16C65 24.8366 57.8366 32 49 32H16C7.16344 32 0 24.8366 0 16V16Z" fill="#F44236"/>
<path d="M26.5039 7.13184C26.9834 6.85783 27.5942 7.0244 27.8682 7.50392L31.5801 14H34C34.5523 14 35 14.4477 35 15C35 15.5523 34.5523 16 34 16H33.3955L31.875 22.624L31.873 22.6231C31.7291 23.3013 31.3562 23.9093 30.8145 24.3428C30.2716 24.777 29.595 25.0083 28.9004 24.999V25H19.0996V24.999C18.405 25.0083 17.7284 24.777 17.1855 24.3428C16.6375 23.9043 16.2604 23.2874 16.1201 22.5996V22.5986L14.6934 16H14C13.4477 16 13 15.5523 13 15C13 14.4477 13.4477 14 14 14H16.4199L20.1318 7.50392C20.4058 7.0244 21.0166 6.85783 21.4961 7.13184C21.9756 7.40585 22.1422 8.01659 21.8682 8.4961L18.7227 14H29.2773L26.1318 8.4961C25.8578 8.01659 26.0244 7.40586 26.5039 7.13184ZM18.0771 22.1885L18.0801 22.2002L18.1006 22.2852C18.1584 22.48 18.2748 22.6534 18.4346 22.7813C18.6173 22.9274 18.8461 23.0047 19.0801 23H20.8828L20.6045 20.5H17.7119L18.0771 22.1885ZM27.1172 23H28.9199C29.1539 23.0047 29.3827 22.9274 29.5654 22.7813C29.748 22.6351 29.8732 22.4294 29.9199 22.2002C29.9216 22.1921 29.9239 22.1838 29.9258 22.1758L30.3105 20.5H27.3955L27.1172 23ZM22.8955 23H25.1045L25.3828 20.5H22.6172L22.8955 23ZM27.6172 18.5H30.7695L31.3438 16H27.8955L27.6172 18.5ZM22.3955 18.5H25.6045L25.8828 16H22.1172L22.3955 18.5ZM17.2793 18.5H20.3828L20.1045 16H16.7393L17.2793 18.5Z" fill="white"/>
<path d="M48.4932 20.6367C47.7959 20.6367 47.1715 20.5182 46.6201 20.2812C46.0687 20.0443 45.6357 19.7139 45.3213 19.29C45.0068 18.8617 44.8428 18.3717 44.8291 17.8203H46.6201C46.6383 18.0801 46.7295 18.3102 46.8936 18.5107C47.0622 18.7067 47.2855 18.8594 47.5635 18.9688C47.8415 19.0781 48.1514 19.1328 48.4932 19.1328C48.8532 19.1328 49.1745 19.0713 49.457 18.9482C49.7441 18.8206 49.9674 18.6452 50.127 18.4219C50.2865 18.1986 50.3662 17.9434 50.3662 17.6562C50.3662 17.36 50.2842 17.0957 50.1201 16.8633C49.9561 16.6309 49.7191 16.4508 49.4092 16.3232C49.0993 16.1911 48.7347 16.125 48.3154 16.125H47.4268V14.7578H48.3154C48.6618 14.7578 48.9694 14.6986 49.2383 14.5801C49.5117 14.457 49.7236 14.2861 49.874 14.0674C50.0244 13.8441 50.0973 13.5911 50.0928 13.3086C50.0973 13.0352 50.0335 12.7936 49.9014 12.584C49.7738 12.3698 49.5892 12.2057 49.3477 12.0918C49.1061 11.9733 48.8258 11.9141 48.5068 11.9141C48.1969 11.9141 47.9076 11.971 47.6387 12.085C47.3743 12.1943 47.1602 12.3516 46.9961 12.5566C46.8366 12.7617 46.7523 12.9987 46.7432 13.2676H45.0342C45.0479 12.7207 45.2074 12.2354 45.5127 11.8115C45.8226 11.3877 46.2396 11.0573 46.7637 10.8203C47.2923 10.5833 47.8779 10.4648 48.5205 10.4648C49.1722 10.4648 49.7487 10.5879 50.25 10.834C50.7513 11.0755 51.1387 11.4059 51.4121 11.8252C51.6855 12.2445 51.82 12.707 51.8154 13.2129C51.82 13.5775 51.7471 13.9079 51.5967 14.2041C51.4463 14.5003 51.2344 14.7464 50.9609 14.9424C50.6875 15.1383 50.3708 15.2728 50.0107 15.3457V15.4277C50.471 15.4915 50.8652 15.6283 51.1934 15.8379C51.5215 16.043 51.7699 16.3096 51.9385 16.6377C52.1071 16.9658 52.1891 17.3372 52.1846 17.752C52.1891 18.2988 52.0319 18.7933 51.7129 19.2354C51.3984 19.6729 50.9587 20.0169 50.3936 20.2676C49.833 20.5137 49.1995 20.6367 48.4932 20.6367Z" fill="white"/>
</svg>
