<svg width="100%" height="100%"  viewBox="0 0 24 24" fill="current" stroke="current" xmlns="http://www.w3.org/2000/svg">
<path d="M14.5039 3.13183C14.9834 2.85782 15.5942 3.02438 15.8682 3.5039L19.5801 9.99999H22C22.5523 9.99999 23 10.4477 23 11C23 11.5523 22.5523 12 22 12H21.3955L19.875 18.624L19.873 18.623C19.7291 19.3013 19.3562 19.9093 18.8145 20.3428C18.2716 20.777 17.595 21.0083 16.9004 20.999V21H7.09961V20.999C6.40496 21.0083 5.72835 20.777 5.18555 20.3428C4.63747 19.9043 4.26036 19.2874 4.12012 18.5996V18.5986L2.69336 12H2C1.44772 12 1 11.5523 1 11C1 10.4477 1.44772 9.99999 2 9.99999H4.41992L8.13184 3.5039C8.40585 3.02438 9.01658 2.85782 9.49609 3.13183C9.97561 3.40584 10.1422 4.01657 9.86816 4.49609L6.72266 9.99999H17.2773L14.1318 4.49609C13.8578 4.01657 14.0244 3.40584 14.5039 3.13183ZM6.07715 18.1885L6.08008 18.2002L6.10059 18.2851C6.15843 18.48 6.27483 18.6534 6.43457 18.7812C6.61729 18.9274 6.84613 19.0047 7.08008 19H8.88281L8.60449 16.5H5.71191L6.07715 18.1885ZM15.1172 19H16.9199C17.1539 19.0047 17.3827 18.9274 17.5654 18.7812C17.748 18.6351 17.8732 18.4293 17.9199 18.2002C17.9216 18.1921 17.9239 18.1838 17.9258 18.1758L18.3105 16.5H15.3955L15.1172 19ZM10.8955 19H13.1045L13.3828 16.5H10.6172L10.8955 19ZM15.6172 14.5H18.7695L19.3438 12H15.8955L15.6172 14.5ZM10.3955 14.5H13.6045L13.8828 12H10.1172L10.3955 14.5ZM5.2793 14.5H8.38281L8.10449 12H4.73926L5.2793 14.5Z"/>
</svg>
