<svg width="100%" height="100%"  viewBox="0 0 24 24" fill="current" stroke="current" xmlns="http://www.w3.org/2000/svg">
<path d="M17 2.49799C17.5833 2.49793 18.1574 2.6436 18.6702 2.92177C19.183 3.19993 19.6181 3.60179 19.9361 4.09083C20.2542 4.57988 20.445 5.14062 20.4913 5.72213C20.5375 6.30365 20.4378 6.88752 20.2012 7.42071C19.9645 7.9539 19.5984 8.41953 19.1361 8.7753C18.6738 9.13108 18.1299 9.36573 17.5539 9.45795C16.9779 9.55017 16.388 9.49703 15.8377 9.30337C15.2874 9.1097 14.7942 8.78165 14.403 8.34899L9.84496 10.954C10.0582 11.635 10.0582 12.365 9.84496 13.046L14.402 15.652C14.9814 15.0118 15.7769 14.6082 16.6357 14.5187C17.4945 14.4293 18.3561 14.6602 19.055 15.1673C19.7539 15.6744 20.2409 16.4218 20.4223 17.266C20.6038 18.1102 20.4669 18.9916 20.0381 19.7411C19.6092 20.4906 18.9186 21.0552 18.0989 21.3265C17.2792 21.5978 16.3881 21.5567 15.5968 21.2111C14.8055 20.8655 14.1698 20.2397 13.8118 19.454C13.4537 18.6682 13.3986 17.7779 13.657 16.954L9.09996 14.347C8.62533 14.8718 8.00285 15.2405 7.31453 15.4046C6.62621 15.5686 5.90434 15.5203 5.24402 15.266C4.5837 15.0117 4.0159 14.5633 3.61543 13.98C3.21496 13.3966 3.00061 12.7056 3.00061 11.998C3.00061 11.2904 3.21496 10.5994 3.61543 10.016C4.0159 9.43264 4.5837 8.98427 5.24402 8.72997C5.90434 8.47566 6.62621 8.42735 7.31453 8.59141C8.00285 8.75546 8.62533 9.12418 9.09996 9.64899L13.657 7.04499C13.493 6.52062 13.4547 5.96503 13.5452 5.42313C13.6357 4.88123 13.8525 4.36823 14.1779 3.92559C14.5033 3.48295 14.9284 3.12308 15.4186 2.87508C15.9088 2.62708 16.4506 2.4979 17 2.49799ZM17 15.998C16.469 15.998 15.9598 16.2089 15.5843 16.5844C15.2089 16.9598 14.998 17.469 14.998 18C14.998 18.5309 15.2089 19.0402 15.5843 19.4156C15.9598 19.7911 16.469 20.002 17 20.002C17.5309 20.002 18.0401 19.7911 18.4156 19.4156C18.791 19.0402 19.002 18.5309 19.002 18C19.002 17.469 18.791 16.9598 18.4156 16.5844C18.0401 16.2089 17.5309 15.998 17 15.998ZM6.50196 9.99799C5.97099 9.99799 5.46178 10.2089 5.08633 10.5844C4.71088 10.9598 4.49996 11.469 4.49996 12C4.49996 12.5309 4.71088 13.0402 5.08633 13.4156C5.46178 13.7911 5.97099 14.002 6.50196 14.002C7.03292 14.002 7.54214 13.7911 7.91758 13.4156C8.29303 13.0402 8.50396 12.5309 8.50396 12C8.50396 11.469 8.29303 10.9598 7.91758 10.5844C7.54214 10.2089 7.03292 9.99799 6.50196 9.99799ZM17 3.99799C16.469 3.99799 15.9598 4.20891 15.5843 4.58436C15.2089 4.95981 14.998 5.46902 14.998 5.99999C14.998 6.53095 15.2089 7.04017 15.5843 7.41561C15.9598 7.79106 16.469 8.00199 17 8.00199C17.5309 8.00199 18.0401 7.79106 18.4156 7.41561C18.791 7.04017 19.002 6.53095 19.002 5.99999C19.002 5.46902 18.791 4.95981 18.4156 4.58436C18.0401 4.20891 17.5309 3.99799 17 3.99799Z"  />
</svg>
