<svg width="current" height="current" viewBox="0 0 24 24" fill="current" stroke="current" xmlns="http://www.w3.org/2000/svg">
<path d="M18 2.75C18 2.55109 17.921 2.36032 17.7803 2.21967C17.6397 2.07902 17.4489 2 17.25 2C17.0511 2 16.8603 2.07902 16.7197 2.21967C16.579 2.36032 16.5 2.55109 16.5 2.75V19.44L14.28 17.22C14.2113 17.1463 14.1285 17.0872 14.0365 17.0462C13.9445 17.0052 13.8452 16.9832 13.7445 16.9814C13.6438 16.9796 13.5438 16.9982 13.4504 17.0359C13.357 17.0736 13.2722 17.1297 13.201 17.201C13.1297 17.2722 13.0736 17.357 13.0359 17.4504C12.9982 17.5438 12.9796 17.6438 12.9814 17.7445C12.9832 17.8452 13.0052 17.9445 13.0462 18.0365C13.0872 18.1285 13.1463 18.2113 13.22 18.28L16.72 21.78C16.8606 21.9205 17.0512 21.9993 17.25 21.9993C17.4488 21.9993 17.6394 21.9205 17.78 21.78L21.28 18.28C21.3537 18.2113 21.4128 18.1285 21.4538 18.0365C21.4948 17.9445 21.5168 17.8452 21.5186 17.7445C21.5204 17.6438 21.5018 17.5438 21.4641 17.4504C21.4264 17.357 21.3703 17.2722 21.299 17.201C21.2278 17.1297 21.143 17.0736 21.0496 17.0359C20.9562 16.9982 20.8562 16.9796 20.7555 16.9814C20.6548 16.9832 20.5555 17.0052 20.4635 17.0462C20.3715 17.0872 20.2887 17.1463 20.22 17.22L18 19.44V2.75ZM2.75 4.5C2.55109 4.5 2.36032 4.57902 2.21967 4.71967C2.07902 4.86032 2 5.05109 2 5.25C2 5.44891 2.07902 5.63968 2.21967 5.78033C2.36032 5.92098 2.55109 6 2.75 6H13.25C13.4489 6 13.6397 5.92098 13.7803 5.78033C13.921 5.63968 14 5.44891 14 5.25C14 5.05109 13.921 4.86032 13.7803 4.71967C13.6397 4.57902 13.4489 4.5 13.25 4.5H2.75ZM6 9.25C6 9.05109 6.07902 8.86032 6.21967 8.71967C6.36032 8.57902 6.55109 8.5 6.75 8.5H13.25C13.4489 8.5 13.6397 8.57902 13.7803 8.71967C13.921 8.86032 14 9.05109 14 9.25C14 9.44891 13.921 9.63968 13.7803 9.78033C13.6397 9.92098 13.4489 10 13.25 10H6.75C6.55109 10 6.36032 9.92098 6.21967 9.78033C6.07902 9.63968 6 9.44891 6 9.25ZM10.75 12.5C10.5511 12.5 10.3603 12.579 10.2197 12.7197C10.079 12.8603 10 13.0511 10 13.25C10 13.4489 10.079 13.6397 10.2197 13.7803C10.3603 13.921 10.5511 14 10.75 14H13.25C13.4489 14 13.6397 13.921 13.7803 13.7803C13.921 13.6397 14 13.4489 14 13.25C14 13.0511 13.921 12.8603 13.7803 12.7197C13.6397 12.579 13.4489 12.5 13.25 12.5H10.75Z"  />
</svg>
