<svg width="24" height="24" viewBox="0 0 24 24" fill="none" xmlns="http://www.w3.org/2000/svg">
<path d="M8.66506 15.735C8.91006 15.908 9.20206 16 9.50106 15.999V15.995C9.78337 15.9957 10.0597 15.9135 10.2956 15.7584C10.5315 15.6034 10.7167 15.3824 10.8281 15.123L11.4411 13.259C11.5826 12.8367 11.8204 12.4531 12.1358 12.1386C12.4511 11.8241 12.8354 11.5873 13.2581 11.447L15.0361 10.869C15.323 10.7689 15.5709 10.5807 15.7445 10.3313C15.9181 10.0819 16.0084 9.78399 16.0027 9.48017C15.9969 9.17636 15.8953 8.88212 15.7124 8.63948C15.5295 8.39683 15.2746 8.21818 14.9841 8.12901L13.2291 7.55901C12.8046 7.41754 12.419 7.17914 12.1027 6.86271C11.7865 6.54627 11.5483 6.16051 11.4071 5.73601L10.8291 3.95901C10.7283 3.67599 10.5418 3.43139 10.2956 3.2592C10.0494 3.08702 9.75566 2.9958 9.45523 2.99822C9.1548 3.00064 8.86259 3.09657 8.61919 3.2727C8.37579 3.44883 8.19329 3.6964 8.09706 3.98101L7.51406 5.77301C7.37328 6.18517 7.14085 6.56003 6.83427 6.86938C6.52769 7.17874 6.15493 7.41453 5.74406 7.55901L3.96706 8.12901C3.68185 8.2277 3.43473 8.41327 3.26043 8.65964C3.08612 8.90602 2.99339 9.20081 2.99527 9.50261C2.99714 9.8044 3.09353 10.098 3.27088 10.3422C3.44824 10.5864 3.69765 10.7689 3.98406 10.864L5.73806 11.433C6.16243 11.5755 6.5479 11.8146 6.86409 12.1315C7.18027 12.4483 7.41853 12.8343 7.56006 13.259L8.13806 15.034C8.23706 15.317 8.42106 15.562 8.66506 15.735ZM16.3321 20.781C16.1412 20.6451 15.9978 20.4527 15.9221 20.231L15.5941 19.225C15.5305 19.0335 15.4232 18.8595 15.2807 18.7166C15.1382 18.5738 14.9644 18.4661 14.7731 18.402L13.7821 18.079C13.5554 18.0022 13.3583 17.8566 13.2183 17.6625C13.0783 17.4683 13.0023 17.2354 13.0011 16.996C13.0008 16.758 13.075 16.526 13.2132 16.3323C13.3515 16.1386 13.5469 15.993 13.7721 15.916L14.7781 15.59C14.9652 15.5235 15.1346 15.415 15.2733 15.2729C15.4119 15.1307 15.5162 14.9587 15.5781 14.77L15.9021 13.779C15.9783 13.5548 16.1223 13.3598 16.3142 13.2209C16.506 13.0821 16.7363 13.0062 16.9731 13.0039C17.2099 13.0016 17.4416 13.0729 17.6362 13.208C17.8307 13.3431 17.9785 13.5353 18.0591 13.758L18.3881 14.772C18.4525 14.9621 18.56 15.1347 18.7023 15.2762C18.8446 15.4178 19.0177 15.5245 19.2081 15.588L20.2001 15.911C20.4287 15.9825 20.6291 16.1242 20.7727 16.316C20.9164 16.5078 20.996 16.7399 21.0003 16.9794C21.0046 17.219 20.9334 17.4538 20.7968 17.6507C20.6601 17.8475 20.465 17.9963 20.2391 18.076L19.2251 18.405C19.0344 18.4694 18.8613 18.5771 18.7193 18.7197C18.5774 18.8624 18.4705 19.036 18.4071 19.227L18.0851 20.216C18.0071 20.446 17.8591 20.646 17.6601 20.786C17.4659 20.924 17.2334 20.9977 16.9953 20.9969C16.7571 20.996 16.5251 20.9205 16.3321 20.781Z" fill="black"/>
</svg>
