<svg width="100%" height="100%"  viewBox="0 0 24 24" fill="current" stroke="current" xmlns="http://www.w3.org/2000/svg">
<path d="M4 5.25C4 4.38805 4.34241 3.5614 4.9519 2.9519C5.5614 2.34241 6.38805 2 7.25 2H16.75C17.612 2 18.4386 2.34241 19.0481 2.9519C19.6576 3.5614 20 4.38805 20 5.25V18.75C20 19.1768 19.9159 19.5994 19.7526 19.9937C19.5893 20.388 19.3499 20.7463 19.0481 21.0481C18.7463 21.3499 18.388 21.5893 17.9937 21.7526C17.5994 21.9159 17.1768 22 16.75 22H7.25C6.8232 22 6.40059 21.9159 6.00628 21.7526C5.61197 21.5893 5.25369 21.3499 4.9519 21.0481C4.65011 20.7463 4.41072 20.388 4.24739 19.9937C4.08406 19.5994 4 19.1768 4 18.75V5.25ZM12 12.5C11.4696 12.5 10.9609 12.7107 10.5858 13.0858C10.2107 13.4609 10 13.9696 10 14.5C10 15.0304 10.2107 15.5391 10.5858 15.9142C10.9609 16.2893 11.4696 16.5 12 16.5C12.5304 16.5 13.0391 16.2893 13.4142 15.9142C13.7893 15.5391 14 15.0304 14 14.5C14 13.9696 13.7893 13.4609 13.4142 13.0858C13.0391 12.7107 12.5304 12.5 12 12.5ZM8.5 14.5C8.5 14.9596 8.59053 15.4148 8.76642 15.8394C8.94231 16.264 9.20012 16.6499 9.52513 16.9749C9.85013 17.2999 10.236 17.5577 10.6606 17.7336C11.0852 17.9095 11.5404 18 12 18C12.4596 18 12.9148 17.9095 13.3394 17.7336C13.764 17.5577 14.1499 17.2999 14.4749 16.9749C14.7999 16.6499 15.0577 16.264 15.2336 15.8394C15.4095 15.4148 15.5 14.9596 15.5 14.5C15.5 13.5717 15.1313 12.6815 14.4749 12.0251C13.8185 11.3687 12.9283 11 12 11C11.0717 11 10.1815 11.3687 9.52513 12.0251C8.86875 12.6815 8.5 13.5717 8.5 14.5ZM12 9C12.3978 9 12.7794 8.84196 13.0607 8.56066C13.342 8.27936 13.5 7.89782 13.5 7.5C13.5 7.10218 13.342 6.72064 13.0607 6.43934C12.7794 6.15804 12.3978 6 12 6C11.6022 6 11.2206 6.15804 10.9393 6.43934C10.658 6.72064 10.5 7.10218 10.5 7.5C10.5 7.89782 10.658 8.27936 10.9393 8.56066C11.2206 8.84196 11.6022 9 12 9Z"  />
</svg>
