<svg width="current" height="current" viewBox="0 0 24 24" fill="current" stroke="current" xmlns="http://www.w3.org/2000/svg">
<path d="M10.788 3.10201C11.283 2.09901 12.714 2.09901 13.209 3.10201L15.567 7.88001L20.84 8.64601C21.947 8.80601 22.389 10.168 21.588 10.949L17.772 14.668L18.673 19.918C18.863 21.022 17.705 21.863 16.714 21.342L11.998 18.862L7.28303 21.342C6.29303 21.862 5.13503 21.022 5.32303 19.919L6.22403 14.668L2.40903 10.948C1.60803 10.168 2.05003 8.80701 3.15703 8.64601L8.43003 7.88001L10.788 3.10201ZM11.998 4.03901L9.74003 8.61401C9.64327 8.81032 9.50023 8.98016 9.32323 9.1089C9.14624 9.23764 8.9406 9.32142 8.72403 9.35301L3.67403 10.087L7.32803 13.649C7.64603 13.959 7.79103 14.406 7.71603 14.844L6.85403 19.873L11.37 17.498C11.5638 17.3961 11.7795 17.3428 11.9985 17.3428C12.2175 17.3428 12.4332 17.3961 12.627 17.498L17.143 19.873L16.281 14.843C16.2442 14.6274 16.2602 14.4062 16.3278 14.1982C16.3954 13.9902 16.5125 13.8017 16.669 13.649L20.323 10.087L15.273 9.35301C15.0565 9.32142 14.8508 9.23764 14.6738 9.1089C14.4968 8.98016 14.3538 8.81032 14.257 8.61401L11.998 4.03901Z"  />
</svg>
