<svg width="100%" height="100%" viewBox="0 0 88 89" fill="current" xmlns="http://www.w3.org/2000/svg">
<path d="M77.666 44.5005C77.666 25.9065 62.594 10.8337 44 10.8335C25.4059 10.8335 10.333 25.9063 10.333 44.5005C10.3332 63.0945 25.406 78.1665 44 78.1665C62.5939 78.1663 77.6658 63.0944 77.666 44.5005ZM61.1074 31.5776L40.9893 59.7427L23.8662 46.8999L27.4668 42.1001L39.6758 51.2573L56.2256 28.0894L61.1074 31.5776ZM83.666 44.5005C83.6658 66.4081 65.9076 84.1663 44 84.1665C22.0923 84.1665 4.33318 66.4082 4.33301 44.5005C4.33301 22.5926 22.0921 4.8335 44 4.8335C65.9077 4.83367 83.666 22.5927 83.666 44.5005Z"/>
</svg>
