<svg width="current" height="current" viewBox="0 0 24 24" fill="current" stroke="current" xmlns="http://www.w3.org/2000/svg">
<path d="M2 5.25C2 4.65326 2.23705 4.08097 2.65901 3.65901C3.08097 3.23705 3.65326 3 4.25 3H14.25C14.8467 3 15.419 3.23705 15.841 3.65901C16.2629 4.08097 16.5 4.65326 16.5 5.25V6H18.05C18.92 6 19.712 6.501 20.084 7.287L21.784 10.874C21.926 11.175 22 11.504 22 11.837V17.25C22 17.8467 21.7629 18.419 21.341 18.841C20.919 19.2629 20.3467 19.5 19.75 19.5H17.959C17.8414 20.1996 17.4797 20.8349 16.938 21.2931C16.3964 21.7513 15.7099 22.0027 15.0005 22.0027C14.2911 22.0027 13.6046 21.7513 13.063 21.2931C12.5213 20.8349 12.1596 20.1996 12.042 19.5H9.958C9.8411 20.2013 9.47891 20.8384 8.936 21.2975C8.39309 21.7566 7.70477 22.008 6.99376 22.0068C6.28275 22.0056 5.59527 21.7519 5.05392 21.2909C4.51257 20.83 4.15253 20.1917 4.038 19.49C3.48045 19.4372 2.96263 19.1784 2.58574 18.7642C2.20885 18.3499 2 17.81 2 17.25V5.25ZM20.5 15.5H19.25C19.0511 15.5 18.8603 15.579 18.7197 15.7197C18.579 15.8603 18.5 16.0511 18.5 16.25C18.5 16.4489 18.579 16.6397 18.7197 16.7803C18.8603 16.921 19.0511 17 19.25 17H20.5V15.5ZM20.183 11L18.73 7.929C18.6692 7.80063 18.5732 7.69216 18.4532 7.61622C18.3332 7.54027 18.194 7.49997 18.052 7.5H16.5V11H20.183ZM7 20.5C7.39782 20.5 7.77936 20.342 8.06066 20.0607C8.34196 19.7794 8.5 19.3978 8.5 19C8.5 18.6022 8.34196 18.2206 8.06066 17.9393C7.77936 17.658 7.39782 17.5 7 17.5C6.60218 17.5 6.22064 17.658 5.93934 17.9393C5.65804 18.2206 5.5 18.6022 5.5 19C5.5 19.3978 5.65804 19.7794 5.93934 20.0607C6.22064 20.342 6.60218 20.5 7 20.5ZM16.5 19C16.5 18.6022 16.342 18.2206 16.0607 17.9393C15.7794 17.658 15.3978 17.5 15 17.5C14.6022 17.5 14.2206 17.658 13.9393 17.9393C13.658 18.2206 13.5 18.6022 13.5 19C13.5 19.3978 13.658 19.7794 13.9393 20.0607C14.2206 20.342 14.6022 20.5 15 20.5C15.3978 20.5 15.7794 20.342 16.0607 20.0607C16.342 19.7794 16.5 19.3978 16.5 19Z"  />
</svg>
