<svg width="24" height="24" viewBox="0 0 24 24" fill="none" xmlns="http://www.w3.org/2000/svg">
<path d="M20.952 3.048C20.2807 2.3775 19.3708 2.00089 18.422 2.00089C17.4732 2.00089 16.5633 2.3775 15.892 3.048L3.93999 15C3.53353 15.406 3.2479 15.9171 3.11499 16.476L2.01999 21.078C1.99034 21.2027 1.99312 21.3328 2.02806 21.4561C2.06301 21.5794 2.12895 21.6916 2.2196 21.7822C2.31025 21.8727 2.42258 21.9385 2.54589 21.9733C2.6692 22.0082 2.79937 22.0108 2.92399 21.981L7.52499 20.885C8.08429 20.7523 8.59567 20.4666 9.00199 20.06L20.952 8.11C21.6225 7.43874 21.9991 6.52877 21.9991 5.58C21.9991 4.63123 21.6225 3.72126 20.952 3.05M16.952 4.11C17.145 3.91696 17.3742 3.76383 17.6264 3.65935C17.8787 3.55488 18.149 3.50111 18.422 3.50111C18.695 3.50111 18.9653 3.55488 19.2175 3.65935C19.4698 3.76383 19.6989 3.91696 19.892 4.11C20.085 4.30304 20.2382 4.53222 20.3426 4.78444C20.4471 5.03667 20.5009 5.307 20.5009 5.58C20.5009 5.85301 20.4471 6.12334 20.3426 6.37556C20.2382 6.62778 20.085 6.85696 19.892 7.05L19 7.939L16.06 5L16.952 4.11ZM15 6.062L17.94 9L7.93999 19C7.72999 19.21 7.46599 19.357 7.17699 19.426L3.76099 20.24L4.57399 16.824C4.64299 16.534 4.79099 16.27 5.00099 16.06L15 6.062Z" fill="black"/>
</svg>
