<svg width="100%" height="100%"  viewBox="0 0 24 24" fill="current" stroke="current" xmlns="http://www.w3.org/2000/svg">
<path d="M12.7501 9.25C12.949 9.25 13.1397 9.32902 13.2804 9.46967C13.421 9.61032 13.5001 9.80109 13.5001 10C13.5001 10.1989 13.421 10.3897 13.2804 10.5303C13.1397 10.671 12.949 10.75 12.7501 10.75H7.25006C7.05115 10.75 6.86038 10.671 6.71973 10.5303C6.57908 10.3897 6.50006 10.1989 6.50006 10C6.50006 9.80109 6.57908 9.61032 6.71973 9.46967C6.86038 9.32902 7.05115 9.25 7.25006 9.25H12.7501ZM10.0001 2C11.5184 1.99999 13.0055 2.43209 14.2874 3.24581C15.5693 4.05953 16.5932 5.22126 17.2394 6.59527C17.8856 7.96928 18.1275 9.49882 17.9367 11.0052C17.7459 12.5115 17.1304 13.9325 16.1621 15.102L20.7801 19.72C20.9125 19.8622 20.9847 20.0502 20.9812 20.2445C20.9778 20.4388 20.8991 20.6242 20.7617 20.7616C20.6243 20.899 20.4389 20.9777 20.2446 20.9812C20.0503 20.9846 19.8622 20.9125 19.7201 20.78L15.1021 16.162C14.1132 16.9808 12.9417 17.5495 11.6867 17.8202C10.4317 18.0909 9.13001 18.0555 7.89154 17.7171C6.65308 17.3787 5.51425 16.7472 4.57125 15.876C3.62825 15.0048 2.90879 13.9194 2.47365 12.7115C2.0385 11.5036 1.90045 10.2088 2.07116 8.9363C2.24186 7.66383 2.71631 6.45114 3.45442 5.40067C4.19254 4.3502 5.17263 3.4928 6.31191 2.90091C7.4512 2.30901 8.7162 2.00001 10.0001 2ZM10.0001 3.5C8.27615 3.5 6.62285 4.18482 5.40387 5.40381C4.18488 6.62279 3.50006 8.27609 3.50006 10C3.50006 11.7239 4.18488 13.3772 5.40387 14.5962C6.62285 15.8152 8.27615 16.5 10.0001 16.5C11.724 16.5 13.3773 15.8152 14.5963 14.5962C15.8152 13.3772 16.5001 11.7239 16.5001 10C16.5001 8.27609 15.8152 6.62279 14.5963 5.40381C13.3773 4.18482 11.724 3.5 10.0001 3.5Z"  />
</svg>
